G04 #@! TF.GenerationSoftware,KiCad,Pcbnew,(5.1.2)-2*
G04 #@! TF.CreationDate,2019-07-29T12:19:19-07:00*
G04 #@! TF.ProjectId,Pixel Connector Test Board,50697865-6c20-4436-9f6e-6e6563746f72,rev?*
G04 #@! TF.SameCoordinates,Original*
G04 #@! TF.FileFunction,Copper,L2,Bot*
G04 #@! TF.FilePolarity,Positive*
%FSLAX46Y46*%
G04 Gerber Fmt 4.6, Leading zero omitted, Abs format (unit mm)*
G04 Created by KiCad (PCBNEW (5.1.2)-2) date 2019-07-29 12:19:19*
%MOMM*%
%LPD*%
G04 APERTURE LIST*
%ADD10C,0.050000*%
%ADD11C,1.600000*%
%ADD12C,4.000000*%
%ADD13C,1.800000*%
G04 APERTURE END LIST*
D10*
X253500000Y-59800000D02*
X227500000Y-59800000D01*
X54200000Y-59800000D02*
X227500000Y-59800000D01*
X253500000Y-12100000D02*
X253500000Y-59800000D01*
X54700000Y-12100000D02*
X253500000Y-12100000D01*
X12100000Y-36900000D02*
X12100000Y-59800000D01*
X12100000Y-12100000D02*
X54700000Y-12100000D01*
X12100000Y-59800000D02*
X54200000Y-59800000D01*
X12100000Y-12100000D02*
X12100000Y-36900000D01*
D11*
X70850000Y-18400000D03*
X70850000Y-20400000D03*
X57150000Y-18900000D03*
X57150000Y-20900000D03*
X22700000Y-50000000D03*
X22700000Y-52000000D03*
X32700000Y-52500000D03*
X32700000Y-50500000D03*
D12*
X248800000Y-18300000D03*
X177100000Y-54600000D03*
X60700000Y-53200000D03*
X17500000Y-16200000D03*
D13*
X233800000Y-34400000D03*
X238800000Y-29400000D03*
X233800000Y-24400000D03*
X233800000Y-44400000D03*
X238800000Y-39400000D03*
X238800000Y-49400000D03*
X238800000Y-19400000D03*
X173800000Y-34400000D03*
X173800000Y-24400000D03*
X168800000Y-19400000D03*
X168800000Y-29400000D03*
X168800000Y-49400000D03*
X173800000Y-44400000D03*
X168800000Y-39400000D03*
X150100000Y-37500000D03*
X155100000Y-32500000D03*
X150100000Y-27500000D03*
X150100000Y-47500000D03*
X155100000Y-42500000D03*
X155100000Y-52500000D03*
X155100000Y-22500000D03*
X92100000Y-27500000D03*
X87100000Y-22500000D03*
X87100000Y-32500000D03*
X92100000Y-37500000D03*
X87100000Y-42500000D03*
X92100000Y-47500000D03*
X87100000Y-52500000D03*
X68300000Y-48700000D03*
X75200000Y-40200000D03*
X52400000Y-48700000D03*
X60600000Y-40200000D03*
X40500000Y-21900000D03*
X33600000Y-30400000D03*
X25900000Y-21900000D03*
X17700000Y-30400000D03*
M02*
