G04 #@! TF.GenerationSoftware,KiCad,Pcbnew,(5.1.2)-2*
G04 #@! TF.CreationDate,2019-07-29T12:19:19-07:00*
G04 #@! TF.ProjectId,Pixel Connector Test Board,50697865-6c20-4436-9f6e-6e6563746f72,rev?*
G04 #@! TF.SameCoordinates,Original*
G04 #@! TF.FileFunction,Copper,L1,Top*
G04 #@! TF.FilePolarity,Positive*
%FSLAX46Y46*%
G04 Gerber Fmt 4.6, Leading zero omitted, Abs format (unit mm)*
G04 Created by KiCad (PCBNEW (5.1.2)-2) date 2019-07-29 12:19:19*
%MOMM*%
%LPD*%
G04 APERTURE LIST*
%ADD10C,0.050000*%
%ADD11C,1.600000*%
%ADD12O,1.250000X3.500000*%
%ADD13O,1.300000X3.500000*%
%ADD14O,0.600000X0.300000*%
%ADD15O,0.700000X0.300000*%
%ADD16O,0.300000X0.700000*%
%ADD17C,4.000000*%
%ADD18C,1.800000*%
%ADD19C,0.250000*%
G04 APERTURE END LIST*
D10*
X253500000Y-59800000D02*
X227500000Y-59800000D01*
X54200000Y-59800000D02*
X227500000Y-59800000D01*
X253500000Y-12100000D02*
X253500000Y-59800000D01*
X54700000Y-12100000D02*
X253500000Y-12100000D01*
X12100000Y-36900000D02*
X12100000Y-59800000D01*
X12100000Y-12100000D02*
X54700000Y-12100000D01*
X12100000Y-59800000D02*
X54200000Y-59800000D01*
X12100000Y-12100000D02*
X12100000Y-36900000D01*
D11*
X70850000Y-18400000D03*
X70850000Y-20400000D03*
X57150000Y-18900000D03*
X57150000Y-20900000D03*
D12*
X67000000Y-19200000D03*
X65000000Y-19200000D03*
X63000000Y-19200000D03*
X61000000Y-19200000D03*
D11*
X22700000Y-50000000D03*
X22700000Y-52000000D03*
X32700000Y-52500000D03*
X32700000Y-50500000D03*
D13*
X30700000Y-51500000D03*
X28700000Y-51500000D03*
X26700000Y-51500000D03*
X24700000Y-51500000D03*
D14*
X124000000Y-35150000D03*
X124000000Y-35650000D03*
X124000000Y-36150000D03*
X124000000Y-36650000D03*
X124000000Y-37150000D03*
X124000000Y-37650000D03*
X124000000Y-38150000D03*
X124000000Y-38650000D03*
X124000000Y-39150000D03*
X124000000Y-39650000D03*
X122600000Y-35150000D03*
X122600000Y-35650000D03*
X122600000Y-36150000D03*
X122600000Y-36650000D03*
X122600000Y-37150000D03*
X122600000Y-37650000D03*
X122600000Y-38150000D03*
X122600000Y-38650000D03*
X122600000Y-39150000D03*
X122600000Y-39650000D03*
D15*
X125600000Y-37650000D03*
X125600000Y-36650000D03*
X125600000Y-35150000D03*
X125600000Y-38650000D03*
X125600000Y-39650000D03*
X125600000Y-39150000D03*
X125600000Y-38150000D03*
X121000000Y-35150000D03*
X121000000Y-36650000D03*
X121000000Y-37650000D03*
X121000000Y-38150000D03*
X121000000Y-38650000D03*
X121000000Y-39150000D03*
X121000000Y-39650000D03*
D16*
X204550000Y-36775000D03*
X204550000Y-32225000D03*
X201550000Y-36775000D03*
X205550000Y-36775000D03*
X206050000Y-36775000D03*
X203050000Y-36775000D03*
X204050000Y-36775000D03*
X205050000Y-36775000D03*
X206050000Y-32225000D03*
X205550000Y-32225000D03*
X205050000Y-32225000D03*
X203050000Y-32225000D03*
X204050000Y-32225000D03*
X201550000Y-32225000D03*
D17*
X248800000Y-18300000D03*
X177100000Y-54600000D03*
X60700000Y-53200000D03*
X17500000Y-16200000D03*
D18*
X233800000Y-34400000D03*
X238800000Y-29400000D03*
X233800000Y-24400000D03*
X233800000Y-44400000D03*
X238800000Y-39400000D03*
X238800000Y-49400000D03*
X238800000Y-19400000D03*
X173800000Y-34400000D03*
X173800000Y-24400000D03*
X168800000Y-19400000D03*
X168800000Y-29400000D03*
X168800000Y-49400000D03*
X173800000Y-44400000D03*
X168800000Y-39400000D03*
X150100000Y-37500000D03*
X155100000Y-32500000D03*
X150100000Y-27500000D03*
X150100000Y-47500000D03*
X155100000Y-42500000D03*
X155100000Y-52500000D03*
X155100000Y-22500000D03*
X92100000Y-27500000D03*
X87100000Y-22500000D03*
X87100000Y-32500000D03*
X92100000Y-37500000D03*
X87100000Y-42500000D03*
X92100000Y-47500000D03*
X87100000Y-52500000D03*
X68300000Y-48700000D03*
X75200000Y-40200000D03*
X52400000Y-48700000D03*
X60600000Y-40200000D03*
X40500000Y-21900000D03*
X33600000Y-30400000D03*
X25900000Y-21900000D03*
X17700000Y-30400000D03*
D19*
X67000000Y-32000000D02*
X75200000Y-40200000D01*
X67000000Y-21400000D02*
X67000000Y-32000000D01*
X65000000Y-45400000D02*
X68300000Y-48700000D01*
X65000000Y-21400000D02*
X65000000Y-45400000D01*
X63000000Y-37800000D02*
X60600000Y-40200000D01*
X63000000Y-21400000D02*
X63000000Y-37800000D01*
X52400000Y-35800000D02*
X52400000Y-48700000D01*
X61000000Y-27200000D02*
X52400000Y-35800000D01*
X149900000Y-37300000D02*
X150100000Y-37500000D01*
X92300000Y-37700000D02*
X92100000Y-37500000D01*
X149900000Y-37700000D02*
X150100000Y-37500000D01*
X174000000Y-34600000D02*
X173800000Y-34400000D01*
X174000000Y-34200000D02*
X173800000Y-34400000D01*
X233600000Y-34200000D02*
X233800000Y-34400000D01*
X182300000Y-34400000D02*
X173800000Y-34400000D01*
X202600000Y-27400000D02*
X189300000Y-27400000D01*
X189300000Y-27400000D02*
X182300000Y-34400000D01*
X205050000Y-27850000D02*
X202900000Y-25700000D01*
X202900000Y-25700000D02*
X187300000Y-25700000D01*
X187300000Y-25700000D02*
X183600000Y-29400000D01*
X183600000Y-29400000D02*
X168800000Y-29400000D01*
X218600000Y-34400000D02*
X233800000Y-34400000D01*
X211200000Y-41800000D02*
X218600000Y-34400000D01*
X206400000Y-41800000D02*
X211200000Y-41800000D01*
X204550000Y-39950000D02*
X206400000Y-41800000D01*
X218600000Y-39400000D02*
X238800000Y-39400000D01*
X203400000Y-37950000D02*
X203400000Y-40500000D01*
X204050000Y-37300000D02*
X203400000Y-37950000D01*
X203400000Y-40500000D02*
X206400000Y-43500000D01*
X206400000Y-43500000D02*
X214500000Y-43500000D01*
X214500000Y-43500000D02*
X218600000Y-39400000D01*
X236200000Y-49400000D02*
X238800000Y-49400000D01*
X208100000Y-49400000D02*
X236200000Y-49400000D01*
X200800000Y-42100000D02*
X208100000Y-49400000D01*
X201550000Y-36700000D02*
X201550000Y-36900000D01*
X218000000Y-44400000D02*
X233800000Y-44400000D01*
X203050000Y-37300000D02*
X202100000Y-38250000D01*
X202100000Y-41000000D02*
X206400000Y-45300000D01*
X206400000Y-45300000D02*
X217100000Y-45300000D01*
X202100000Y-38250000D02*
X202100000Y-41000000D01*
X217100000Y-45300000D02*
X218000000Y-44400000D01*
X149950000Y-37650000D02*
X150100000Y-37500000D01*
X92250000Y-37650000D02*
X92100000Y-37500000D01*
X180200000Y-49400000D02*
X168800000Y-49400000D01*
X198550000Y-31050000D02*
X180200000Y-49400000D01*
X200975000Y-31050000D02*
X198550000Y-31050000D01*
X201550000Y-31625000D02*
X200975000Y-31050000D01*
X201550000Y-32225000D02*
X201550000Y-31625000D01*
X182200000Y-44400000D02*
X173800000Y-44400000D01*
X182300000Y-44500000D02*
X182200000Y-44400000D01*
X196500000Y-30300000D02*
X182300000Y-44500000D01*
X201725000Y-30300000D02*
X196500000Y-30300000D01*
X203050000Y-31625000D02*
X201725000Y-30300000D01*
X203050000Y-32225000D02*
X203050000Y-31625000D01*
X182300000Y-39400000D02*
X168800000Y-39400000D01*
X192700000Y-29000000D02*
X182300000Y-39400000D01*
X202000000Y-29000000D02*
X192700000Y-29000000D01*
X204050000Y-32225000D02*
X204050000Y-31050000D01*
X204050000Y-31050000D02*
X202000000Y-29000000D01*
X204550000Y-29350000D02*
X204500000Y-29300000D01*
X204550000Y-32225000D02*
X204550000Y-29350000D01*
X205050000Y-32225000D02*
X205050000Y-27850000D01*
X203700000Y-24400000D02*
X173800000Y-24400000D01*
X205900000Y-26600000D02*
X203700000Y-24400000D01*
X205900000Y-30700000D02*
X205900000Y-26600000D01*
X205550000Y-32225000D02*
X205550000Y-31050000D01*
X205550000Y-31050000D02*
X205900000Y-30700000D01*
X201800000Y-19400000D02*
X168800000Y-19400000D01*
X207400000Y-25000000D02*
X201800000Y-19400000D01*
X207400000Y-30675000D02*
X207400000Y-25000000D01*
X206050000Y-32225000D02*
X206050000Y-32025000D01*
X206050000Y-32025000D02*
X207400000Y-30675000D01*
X204550000Y-29350000D02*
X202600000Y-27400000D01*
X200800000Y-38125000D02*
X200800000Y-38200000D01*
X201550000Y-37375000D02*
X200800000Y-38125000D01*
X201550000Y-36775000D02*
X201550000Y-37375000D01*
X203050000Y-36775000D02*
X203050000Y-37300000D01*
X204050000Y-36775000D02*
X204050000Y-37300000D01*
X204550000Y-36775000D02*
X204550000Y-39950000D01*
X218800000Y-29400000D02*
X238800000Y-29400000D01*
X205050000Y-36775000D02*
X205050000Y-38950000D01*
X206400000Y-40300000D02*
X209600000Y-40300000D01*
X209600000Y-40300000D02*
X216100000Y-33800000D01*
X205050000Y-38950000D02*
X206400000Y-40300000D01*
X216100000Y-33800000D02*
X216100000Y-32100000D01*
X216100000Y-32100000D02*
X218800000Y-29400000D01*
X216100000Y-24400000D02*
X233800000Y-24400000D01*
X205550000Y-38050000D02*
X206400000Y-38900000D01*
X205550000Y-36775000D02*
X205550000Y-38050000D01*
X206400000Y-38900000D02*
X209400000Y-38900000D01*
X209400000Y-38900000D02*
X214500000Y-33800000D01*
X214500000Y-33800000D02*
X214500000Y-26000000D01*
X214500000Y-26000000D02*
X216100000Y-24400000D01*
X218700000Y-19400000D02*
X238800000Y-19400000D01*
X206050000Y-37375000D02*
X206375000Y-37700000D01*
X206050000Y-36775000D02*
X206050000Y-37375000D01*
X206375000Y-37700000D02*
X209300000Y-37700000D01*
X209300000Y-37700000D02*
X213200000Y-33800000D01*
X213200000Y-33800000D02*
X213200000Y-24900000D01*
X213200000Y-24900000D02*
X218700000Y-19400000D01*
X200800000Y-38125000D02*
X200800000Y-42100000D01*
X121000000Y-39650000D02*
X120800000Y-39650000D01*
X121000000Y-36650000D02*
X120800000Y-36650000D01*
X121000000Y-35150000D02*
X120800000Y-35150000D01*
X126200000Y-39650000D02*
X139050000Y-52500000D01*
X125600000Y-39650000D02*
X126200000Y-39650000D01*
X152400000Y-52500000D02*
X155100000Y-52500000D01*
X125800000Y-35150000D02*
X138450000Y-22500000D01*
X125600000Y-35150000D02*
X125800000Y-35150000D01*
X138450000Y-22500000D02*
X155100000Y-22500000D01*
X137100000Y-27500000D02*
X150100000Y-27500000D01*
X125600000Y-36650000D02*
X127950000Y-36650000D01*
X127950000Y-36650000D02*
X137100000Y-27500000D01*
X136100000Y-32500000D02*
X155100000Y-32500000D01*
X125600000Y-37650000D02*
X130950000Y-37650000D01*
X130950000Y-37650000D02*
X136100000Y-32500000D01*
X125600000Y-38650000D02*
X130250000Y-38650000D01*
X130250000Y-38650000D02*
X134100000Y-42500000D01*
X134100000Y-42500000D02*
X155100000Y-42500000D01*
X125600000Y-39150000D02*
X128150000Y-39150000D01*
X128150000Y-39150000D02*
X136500000Y-47500000D01*
X136500000Y-47500000D02*
X150100000Y-47500000D01*
X139050000Y-52500000D02*
X152400000Y-52500000D01*
X91100000Y-22500000D02*
X87100000Y-22500000D01*
X107750000Y-22500000D02*
X91100000Y-22500000D01*
X121000000Y-35150000D02*
X120400000Y-35150000D01*
X120400000Y-35150000D02*
X107750000Y-22500000D01*
X119150000Y-36650000D02*
X121000000Y-36650000D01*
X92100000Y-27500000D02*
X110000000Y-27500000D01*
X110000000Y-27500000D02*
X119150000Y-36650000D01*
X99300000Y-32500000D02*
X87100000Y-32500000D01*
X112800000Y-32500000D02*
X99300000Y-32500000D01*
X121000000Y-37650000D02*
X117950000Y-37650000D01*
X117950000Y-37650000D02*
X112800000Y-32500000D01*
X116350000Y-38650000D02*
X121000000Y-38650000D01*
X87100000Y-42500000D02*
X112500000Y-42500000D01*
X112500000Y-42500000D02*
X116350000Y-38650000D01*
X97900000Y-47500000D02*
X92100000Y-47500000D01*
X110500000Y-47500000D02*
X97900000Y-47500000D01*
X121000000Y-39150000D02*
X118850000Y-39150000D01*
X118850000Y-39150000D02*
X110500000Y-47500000D01*
X94500000Y-52500000D02*
X87100000Y-52500000D01*
X107550000Y-52500000D02*
X94500000Y-52500000D01*
X121000000Y-39650000D02*
X120400000Y-39650000D01*
X120400000Y-39650000D02*
X107550000Y-52500000D01*
X121000000Y-38150000D02*
X113950000Y-38150000D01*
X113300000Y-37500000D02*
X92100000Y-37500000D01*
X113950000Y-38150000D02*
X113300000Y-37500000D01*
X125600000Y-38150000D02*
X135850000Y-38150000D01*
X136500000Y-37500000D02*
X150100000Y-37500000D01*
X135850000Y-38150000D02*
X136500000Y-37500000D01*
X24700000Y-37400000D02*
X17700000Y-30400000D01*
X24700000Y-51500000D02*
X24700000Y-37400000D01*
X28700000Y-35300000D02*
X33600000Y-30400000D01*
X28700000Y-51500000D02*
X28700000Y-35300000D01*
X40500000Y-31900000D02*
X40500000Y-21900000D01*
X30700000Y-51500000D02*
X30700000Y-41700000D01*
X30700000Y-41700000D02*
X40500000Y-31900000D01*
X25900000Y-26800000D02*
X25900000Y-21900000D01*
X26700000Y-51500000D02*
X26700000Y-27600000D01*
X26700000Y-27600000D02*
X25900000Y-26800000D01*
X67000000Y-21400000D02*
X67000000Y-19200000D01*
X65000000Y-21400000D02*
X65000000Y-19200000D01*
X63000000Y-21400000D02*
X63000000Y-19200000D01*
X61000000Y-19200000D02*
X61000000Y-27200000D01*
M02*
