G04 #@! TF.GenerationSoftware,KiCad,Pcbnew,(5.1.2)-2*
G04 #@! TF.CreationDate,2019-07-29T12:19:19-07:00*
G04 #@! TF.ProjectId,Pixel Connector Test Board,50697865-6c20-4436-9f6e-6e6563746f72,rev?*
G04 #@! TF.SameCoordinates,Original*
G04 #@! TF.FileFunction,Legend,Bot*
G04 #@! TF.FilePolarity,Positive*
%FSLAX46Y46*%
G04 Gerber Fmt 4.6, Leading zero omitted, Abs format (unit mm)*
G04 Created by KiCad (PCBNEW (5.1.2)-2) date 2019-07-29 12:19:19*
%MOMM*%
%LPD*%
G04 APERTURE LIST*
%ADD10C,0.150000*%
%ADD11C,0.050000*%
G04 APERTURE END LIST*
D10*
X241090476Y-17852380D02*
X241661904Y-17852380D01*
X241376190Y-17852380D02*
X241376190Y-16852380D01*
X241471428Y-16995238D01*
X241566666Y-17090476D01*
X241661904Y-17138095D01*
X240233333Y-17185714D02*
X240233333Y-17852380D01*
X240471428Y-16804761D02*
X240709523Y-17519047D01*
X240090476Y-17519047D01*
X235790476Y-22952380D02*
X236361904Y-22952380D01*
X236076190Y-22952380D02*
X236076190Y-21952380D01*
X236171428Y-22095238D01*
X236266666Y-22190476D01*
X236361904Y-22238095D01*
X235457142Y-21952380D02*
X234838095Y-21952380D01*
X235171428Y-22333333D01*
X235028571Y-22333333D01*
X234933333Y-22380952D01*
X234885714Y-22428571D01*
X234838095Y-22523809D01*
X234838095Y-22761904D01*
X234885714Y-22857142D01*
X234933333Y-22904761D01*
X235028571Y-22952380D01*
X235314285Y-22952380D01*
X235409523Y-22904761D01*
X235457142Y-22857142D01*
X240690476Y-27952380D02*
X241261904Y-27952380D01*
X240976190Y-27952380D02*
X240976190Y-26952380D01*
X241071428Y-27095238D01*
X241166666Y-27190476D01*
X241261904Y-27238095D01*
X240309523Y-27047619D02*
X240261904Y-27000000D01*
X240166666Y-26952380D01*
X239928571Y-26952380D01*
X239833333Y-27000000D01*
X239785714Y-27047619D01*
X239738095Y-27142857D01*
X239738095Y-27238095D01*
X239785714Y-27380952D01*
X240357142Y-27952380D01*
X239738095Y-27952380D01*
X235790476Y-32852380D02*
X236361904Y-32852380D01*
X236076190Y-32852380D02*
X236076190Y-31852380D01*
X236171428Y-31995238D01*
X236266666Y-32090476D01*
X236361904Y-32138095D01*
X234838095Y-32852380D02*
X235409523Y-32852380D01*
X235123809Y-32852380D02*
X235123809Y-31852380D01*
X235219047Y-31995238D01*
X235314285Y-32090476D01*
X235409523Y-32138095D01*
X240890476Y-38252380D02*
X241461904Y-38252380D01*
X241176190Y-38252380D02*
X241176190Y-37252380D01*
X241271428Y-37395238D01*
X241366666Y-37490476D01*
X241461904Y-37538095D01*
X240271428Y-37252380D02*
X240176190Y-37252380D01*
X240080952Y-37300000D01*
X240033333Y-37347619D01*
X239985714Y-37442857D01*
X239938095Y-37633333D01*
X239938095Y-37871428D01*
X239985714Y-38061904D01*
X240033333Y-38157142D01*
X240080952Y-38204761D01*
X240176190Y-38252380D01*
X240271428Y-38252380D01*
X240366666Y-38204761D01*
X240414285Y-38157142D01*
X240461904Y-38061904D01*
X240509523Y-37871428D01*
X240509523Y-37633333D01*
X240461904Y-37442857D01*
X240414285Y-37347619D01*
X240366666Y-37300000D01*
X240271428Y-37252380D01*
X235590476Y-42952380D02*
X235400000Y-42952380D01*
X235304761Y-42904761D01*
X235257142Y-42857142D01*
X235161904Y-42714285D01*
X235114285Y-42523809D01*
X235114285Y-42142857D01*
X235161904Y-42047619D01*
X235209523Y-42000000D01*
X235304761Y-41952380D01*
X235495238Y-41952380D01*
X235590476Y-42000000D01*
X235638095Y-42047619D01*
X235685714Y-42142857D01*
X235685714Y-42380952D01*
X235638095Y-42476190D01*
X235590476Y-42523809D01*
X235495238Y-42571428D01*
X235304761Y-42571428D01*
X235209523Y-42523809D01*
X235161904Y-42476190D01*
X235114285Y-42380952D01*
X240595238Y-47480952D02*
X240690476Y-47433333D01*
X240738095Y-47385714D01*
X240785714Y-47290476D01*
X240785714Y-47242857D01*
X240738095Y-47147619D01*
X240690476Y-47100000D01*
X240595238Y-47052380D01*
X240404761Y-47052380D01*
X240309523Y-47100000D01*
X240261904Y-47147619D01*
X240214285Y-47242857D01*
X240214285Y-47290476D01*
X240261904Y-47385714D01*
X240309523Y-47433333D01*
X240404761Y-47480952D01*
X240595238Y-47480952D01*
X240690476Y-47528571D01*
X240738095Y-47576190D01*
X240785714Y-47671428D01*
X240785714Y-47861904D01*
X240738095Y-47957142D01*
X240690476Y-48004761D01*
X240595238Y-48052380D01*
X240404761Y-48052380D01*
X240309523Y-48004761D01*
X240261904Y-47957142D01*
X240214285Y-47861904D01*
X240214285Y-47671428D01*
X240261904Y-47576190D01*
X240309523Y-47528571D01*
X240404761Y-47480952D01*
X170633333Y-47252380D02*
X169966666Y-47252380D01*
X170395238Y-48252380D01*
X175009523Y-42252380D02*
X175200000Y-42252380D01*
X175295238Y-42300000D01*
X175342857Y-42347619D01*
X175438095Y-42490476D01*
X175485714Y-42680952D01*
X175485714Y-43061904D01*
X175438095Y-43157142D01*
X175390476Y-43204761D01*
X175295238Y-43252380D01*
X175104761Y-43252380D01*
X175009523Y-43204761D01*
X174961904Y-43157142D01*
X174914285Y-43061904D01*
X174914285Y-42823809D01*
X174961904Y-42728571D01*
X175009523Y-42680952D01*
X175104761Y-42633333D01*
X175295238Y-42633333D01*
X175390476Y-42680952D01*
X175438095Y-42728571D01*
X175485714Y-42823809D01*
X169961904Y-37252380D02*
X170438095Y-37252380D01*
X170485714Y-37728571D01*
X170438095Y-37680952D01*
X170342857Y-37633333D01*
X170104761Y-37633333D01*
X170009523Y-37680952D01*
X169961904Y-37728571D01*
X169914285Y-37823809D01*
X169914285Y-38061904D01*
X169961904Y-38157142D01*
X170009523Y-38204761D01*
X170104761Y-38252380D01*
X170342857Y-38252380D01*
X170438095Y-38204761D01*
X170485714Y-38157142D01*
X174909523Y-32385714D02*
X174909523Y-33052380D01*
X175147619Y-32004761D02*
X175385714Y-32719047D01*
X174766666Y-32719047D01*
X170533333Y-27052380D02*
X169914285Y-27052380D01*
X170247619Y-27433333D01*
X170104761Y-27433333D01*
X170009523Y-27480952D01*
X169961904Y-27528571D01*
X169914285Y-27623809D01*
X169914285Y-27861904D01*
X169961904Y-27957142D01*
X170009523Y-28004761D01*
X170104761Y-28052380D01*
X170390476Y-28052380D01*
X170485714Y-28004761D01*
X170533333Y-27957142D01*
X175185714Y-22147619D02*
X175138095Y-22100000D01*
X175042857Y-22052380D01*
X174804761Y-22052380D01*
X174709523Y-22100000D01*
X174661904Y-22147619D01*
X174614285Y-22242857D01*
X174614285Y-22338095D01*
X174661904Y-22480952D01*
X175233333Y-23052380D01*
X174614285Y-23052380D01*
X169514285Y-17652380D02*
X170085714Y-17652380D01*
X169800000Y-17652380D02*
X169800000Y-16652380D01*
X169895238Y-16795238D01*
X169990476Y-16890476D01*
X170085714Y-16938095D01*
X157552380Y-51109523D02*
X157552380Y-50538095D01*
X157552380Y-50823809D02*
X156552380Y-50823809D01*
X156695238Y-50728571D01*
X156790476Y-50633333D01*
X156838095Y-50538095D01*
X156885714Y-51966666D02*
X157552380Y-51966666D01*
X156504761Y-51728571D02*
X157219047Y-51490476D01*
X157219047Y-52109523D01*
X152552380Y-46309523D02*
X152552380Y-45738095D01*
X152552380Y-46023809D02*
X151552380Y-46023809D01*
X151695238Y-45928571D01*
X151790476Y-45833333D01*
X151838095Y-45738095D01*
X151552380Y-46642857D02*
X151552380Y-47261904D01*
X151933333Y-46928571D01*
X151933333Y-47071428D01*
X151980952Y-47166666D01*
X152028571Y-47214285D01*
X152123809Y-47261904D01*
X152361904Y-47261904D01*
X152457142Y-47214285D01*
X152504761Y-47166666D01*
X152552380Y-47071428D01*
X152552380Y-46785714D01*
X152504761Y-46690476D01*
X152457142Y-46642857D01*
X157552380Y-41109523D02*
X157552380Y-40538095D01*
X157552380Y-40823809D02*
X156552380Y-40823809D01*
X156695238Y-40728571D01*
X156790476Y-40633333D01*
X156838095Y-40538095D01*
X156647619Y-41490476D02*
X156600000Y-41538095D01*
X156552380Y-41633333D01*
X156552380Y-41871428D01*
X156600000Y-41966666D01*
X156647619Y-42014285D01*
X156742857Y-42061904D01*
X156838095Y-42061904D01*
X156980952Y-42014285D01*
X157552380Y-41442857D01*
X157552380Y-42061904D01*
X152552380Y-36109523D02*
X152552380Y-35538095D01*
X152552380Y-35823809D02*
X151552380Y-35823809D01*
X151695238Y-35728571D01*
X151790476Y-35633333D01*
X151838095Y-35538095D01*
X152552380Y-37061904D02*
X152552380Y-36490476D01*
X152552380Y-36776190D02*
X151552380Y-36776190D01*
X151695238Y-36680952D01*
X151790476Y-36585714D01*
X151838095Y-36490476D01*
X157652380Y-31109523D02*
X157652380Y-30538095D01*
X157652380Y-30823809D02*
X156652380Y-30823809D01*
X156795238Y-30728571D01*
X156890476Y-30633333D01*
X156938095Y-30538095D01*
X156652380Y-31728571D02*
X156652380Y-31823809D01*
X156700000Y-31919047D01*
X156747619Y-31966666D01*
X156842857Y-32014285D01*
X157033333Y-32061904D01*
X157271428Y-32061904D01*
X157461904Y-32014285D01*
X157557142Y-31966666D01*
X157604761Y-31919047D01*
X157652380Y-31823809D01*
X157652380Y-31728571D01*
X157604761Y-31633333D01*
X157557142Y-31585714D01*
X157461904Y-31538095D01*
X157271428Y-31490476D01*
X157033333Y-31490476D01*
X156842857Y-31538095D01*
X156747619Y-31585714D01*
X156700000Y-31633333D01*
X156652380Y-31728571D01*
X152552380Y-26209523D02*
X152552380Y-26400000D01*
X152504761Y-26495238D01*
X152457142Y-26542857D01*
X152314285Y-26638095D01*
X152123809Y-26685714D01*
X151742857Y-26685714D01*
X151647619Y-26638095D01*
X151600000Y-26590476D01*
X151552380Y-26495238D01*
X151552380Y-26304761D01*
X151600000Y-26209523D01*
X151647619Y-26161904D01*
X151742857Y-26114285D01*
X151980952Y-26114285D01*
X152076190Y-26161904D01*
X152123809Y-26209523D01*
X152171428Y-26304761D01*
X152171428Y-26495238D01*
X152123809Y-26590476D01*
X152076190Y-26638095D01*
X151980952Y-26685714D01*
X156880952Y-21204761D02*
X156833333Y-21109523D01*
X156785714Y-21061904D01*
X156690476Y-21014285D01*
X156642857Y-21014285D01*
X156547619Y-21061904D01*
X156500000Y-21109523D01*
X156452380Y-21204761D01*
X156452380Y-21395238D01*
X156500000Y-21490476D01*
X156547619Y-21538095D01*
X156642857Y-21585714D01*
X156690476Y-21585714D01*
X156785714Y-21538095D01*
X156833333Y-21490476D01*
X156880952Y-21395238D01*
X156880952Y-21204761D01*
X156928571Y-21109523D01*
X156976190Y-21061904D01*
X157071428Y-21014285D01*
X157261904Y-21014285D01*
X157357142Y-21061904D01*
X157404761Y-21109523D01*
X157452380Y-21204761D01*
X157452380Y-21395238D01*
X157404761Y-21490476D01*
X157357142Y-21538095D01*
X157261904Y-21585714D01*
X157071428Y-21585714D01*
X156976190Y-21538095D01*
X156928571Y-21490476D01*
X156880952Y-21395238D01*
X84952380Y-21785714D02*
X84952380Y-21214285D01*
X84952380Y-21500000D02*
X83952380Y-21500000D01*
X84095238Y-21404761D01*
X84190476Y-21309523D01*
X84238095Y-21214285D01*
X89147619Y-26214285D02*
X89100000Y-26261904D01*
X89052380Y-26357142D01*
X89052380Y-26595238D01*
X89100000Y-26690476D01*
X89147619Y-26738095D01*
X89242857Y-26785714D01*
X89338095Y-26785714D01*
X89480952Y-26738095D01*
X90052380Y-26166666D01*
X90052380Y-26785714D01*
X84152380Y-30666666D02*
X84152380Y-31285714D01*
X84533333Y-30952380D01*
X84533333Y-31095238D01*
X84580952Y-31190476D01*
X84628571Y-31238095D01*
X84723809Y-31285714D01*
X84961904Y-31285714D01*
X85057142Y-31238095D01*
X85104761Y-31190476D01*
X85152380Y-31095238D01*
X85152380Y-30809523D01*
X85104761Y-30714285D01*
X85057142Y-30666666D01*
X89585714Y-36690476D02*
X90252380Y-36690476D01*
X89204761Y-36452380D02*
X89919047Y-36214285D01*
X89919047Y-36833333D01*
X84452380Y-41238095D02*
X84452380Y-40761904D01*
X84928571Y-40714285D01*
X84880952Y-40761904D01*
X84833333Y-40857142D01*
X84833333Y-41095238D01*
X84880952Y-41190476D01*
X84928571Y-41238095D01*
X85023809Y-41285714D01*
X85261904Y-41285714D01*
X85357142Y-41238095D01*
X85404761Y-41190476D01*
X85452380Y-41095238D01*
X85452380Y-40857142D01*
X85404761Y-40761904D01*
X85357142Y-40714285D01*
X89852380Y-46390476D02*
X89852380Y-46200000D01*
X89900000Y-46104761D01*
X89947619Y-46057142D01*
X90090476Y-45961904D01*
X90280952Y-45914285D01*
X90661904Y-45914285D01*
X90757142Y-45961904D01*
X90804761Y-46009523D01*
X90852380Y-46104761D01*
X90852380Y-46295238D01*
X90804761Y-46390476D01*
X90757142Y-46438095D01*
X90661904Y-46485714D01*
X90423809Y-46485714D01*
X90328571Y-46438095D01*
X90280952Y-46390476D01*
X90233333Y-46295238D01*
X90233333Y-46104761D01*
X90280952Y-46009523D01*
X90328571Y-45961904D01*
X90423809Y-45914285D01*
X84352380Y-50866666D02*
X84352380Y-51533333D01*
X85352380Y-51104761D01*
D11*
X253500000Y-59800000D02*
X227500000Y-59800000D01*
X54200000Y-59800000D02*
X227500000Y-59800000D01*
X253500000Y-12100000D02*
X253500000Y-59800000D01*
X54700000Y-12100000D02*
X253500000Y-12100000D01*
X12100000Y-36900000D02*
X12100000Y-59800000D01*
D10*
X50109523Y-50285714D02*
X50109523Y-50952380D01*
X50347619Y-49904761D02*
X50585714Y-50619047D01*
X49966666Y-50619047D01*
X59033333Y-41552380D02*
X58414285Y-41552380D01*
X58747619Y-41933333D01*
X58604761Y-41933333D01*
X58509523Y-41980952D01*
X58461904Y-42028571D01*
X58414285Y-42123809D01*
X58414285Y-42361904D01*
X58461904Y-42457142D01*
X58509523Y-42504761D01*
X58604761Y-42552380D01*
X58890476Y-42552380D01*
X58985714Y-42504761D01*
X59033333Y-42457142D01*
X70285714Y-50547619D02*
X70238095Y-50500000D01*
X70142857Y-50452380D01*
X69904761Y-50452380D01*
X69809523Y-50500000D01*
X69761904Y-50547619D01*
X69714285Y-50642857D01*
X69714285Y-50738095D01*
X69761904Y-50880952D01*
X70333333Y-51452380D01*
X69714285Y-51452380D01*
X76314285Y-42852380D02*
X76885714Y-42852380D01*
X76600000Y-42852380D02*
X76600000Y-41852380D01*
X76695238Y-41995238D01*
X76790476Y-42090476D01*
X76885714Y-42138095D01*
X42009523Y-20085714D02*
X42009523Y-20752380D01*
X42247619Y-19704761D02*
X42485714Y-20419047D01*
X41866666Y-20419047D01*
X27885714Y-19747619D02*
X27838095Y-19700000D01*
X27742857Y-19652380D01*
X27504761Y-19652380D01*
X27409523Y-19700000D01*
X27361904Y-19747619D01*
X27314285Y-19842857D01*
X27314285Y-19938095D01*
X27361904Y-20080952D01*
X27933333Y-20652380D01*
X27314285Y-20652380D01*
X35733333Y-28252380D02*
X35114285Y-28252380D01*
X35447619Y-28633333D01*
X35304761Y-28633333D01*
X35209523Y-28680952D01*
X35161904Y-28728571D01*
X35114285Y-28823809D01*
X35114285Y-29061904D01*
X35161904Y-29157142D01*
X35209523Y-29204761D01*
X35304761Y-29252380D01*
X35590476Y-29252380D01*
X35685714Y-29204761D01*
X35733333Y-29157142D01*
X19014285Y-29052380D02*
X19585714Y-29052380D01*
X19300000Y-29052380D02*
X19300000Y-28052380D01*
X19395238Y-28195238D01*
X19490476Y-28290476D01*
X19585714Y-28338095D01*
D11*
X12100000Y-12100000D02*
X54700000Y-12100000D01*
X12100000Y-59800000D02*
X54200000Y-59800000D01*
X12100000Y-12100000D02*
X12100000Y-36900000D01*
M02*
