M48
; DRILL file {KiCad (5.1.2)-2} date 7/29/2019 12:19:22 PM
; FORMAT={-:-/ absolute / metric / decimal}
; #@! TF.CreationDate,2019-07-29T12:19:22-07:00
; #@! TF.GenerationSoftware,Kicad,Pcbnew,(5.1.2)-2
FMAT,2
METRIC
T1C0.800
T2C1.000
T3C3.050
%
G90
G05
T1
X22.7Y-50.0
X22.7Y-52.0
X32.7Y-50.5
X32.7Y-52.5
X57.15Y-18.9
X57.15Y-20.9
X70.85Y-18.4
X70.85Y-20.4
T2
X168.8Y-29.4
X33.6Y-30.4
X68.3Y-48.7
X155.1Y-42.5
X233.8Y-44.4
X238.8Y-49.4
X155.1Y-22.5
X52.4Y-48.7
X168.8Y-19.4
X60.6Y-40.2
X150.1Y-47.5
X25.9Y-21.9
X87.1Y-22.5
X233.8Y-24.4
X173.8Y-24.4
X173.8Y-44.4
X155.1Y-52.5
X92.1Y-27.5
X87.1Y-52.5
X238.8Y-39.4
X168.8Y-49.4
X92.1Y-37.5
X150.1Y-37.5
X17.7Y-30.4
X238.8Y-29.4
X238.8Y-19.4
X87.1Y-42.5
X150.1Y-27.5
X233.8Y-34.4
X168.8Y-39.4
X92.1Y-47.5
X173.8Y-34.4
X75.2Y-40.2
X155.1Y-32.5
X40.5Y-21.9
X87.1Y-32.5
T3
X60.7Y-53.2
X177.1Y-54.6
X17.5Y-16.2
X248.8Y-18.3
T0
M30
