G04 #@! TF.GenerationSoftware,KiCad,Pcbnew,(5.1.2)-2*
G04 #@! TF.CreationDate,2019-07-29T12:19:19-07:00*
G04 #@! TF.ProjectId,Pixel Connector Test Board,50697865-6c20-4436-9f6e-6e6563746f72,rev?*
G04 #@! TF.SameCoordinates,Original*
G04 #@! TF.FileFunction,Paste,Top*
G04 #@! TF.FilePolarity,Positive*
%FSLAX46Y46*%
G04 Gerber Fmt 4.6, Leading zero omitted, Abs format (unit mm)*
G04 Created by KiCad (PCBNEW (5.1.2)-2) date 2019-07-29 12:19:19*
%MOMM*%
%LPD*%
G04 APERTURE LIST*
%ADD10C,0.050000*%
%ADD11O,1.250000X3.500000*%
%ADD12O,1.300000X3.500000*%
%ADD13O,0.600000X0.300000*%
%ADD14O,0.700000X0.300000*%
%ADD15O,0.300000X0.700000*%
G04 APERTURE END LIST*
D10*
X253500000Y-59800000D02*
X227500000Y-59800000D01*
X54200000Y-59800000D02*
X227500000Y-59800000D01*
X253500000Y-12100000D02*
X253500000Y-59800000D01*
X54700000Y-12100000D02*
X253500000Y-12100000D01*
X12100000Y-36900000D02*
X12100000Y-59800000D01*
X12100000Y-12100000D02*
X54700000Y-12100000D01*
X12100000Y-59800000D02*
X54200000Y-59800000D01*
X12100000Y-12100000D02*
X12100000Y-36900000D01*
D11*
X67000000Y-19200000D03*
X65000000Y-19200000D03*
X63000000Y-19200000D03*
X61000000Y-19200000D03*
D12*
X30700000Y-51500000D03*
X28700000Y-51500000D03*
X26700000Y-51500000D03*
X24700000Y-51500000D03*
D13*
X124000000Y-35150000D03*
X124000000Y-35650000D03*
X124000000Y-36150000D03*
X124000000Y-36650000D03*
X124000000Y-37150000D03*
X124000000Y-37650000D03*
X124000000Y-38150000D03*
X124000000Y-38650000D03*
X124000000Y-39150000D03*
X124000000Y-39650000D03*
X122600000Y-35150000D03*
X122600000Y-35650000D03*
X122600000Y-36150000D03*
X122600000Y-36650000D03*
X122600000Y-37150000D03*
X122600000Y-37650000D03*
X122600000Y-38150000D03*
X122600000Y-38650000D03*
X122600000Y-39150000D03*
X122600000Y-39650000D03*
D14*
X125600000Y-37650000D03*
X125600000Y-36650000D03*
X125600000Y-35150000D03*
X125600000Y-38650000D03*
X125600000Y-39650000D03*
X125600000Y-39150000D03*
X125600000Y-38150000D03*
X121000000Y-35150000D03*
X121000000Y-36650000D03*
X121000000Y-37650000D03*
X121000000Y-38150000D03*
X121000000Y-38650000D03*
X121000000Y-39150000D03*
X121000000Y-39650000D03*
D15*
X204550000Y-36775000D03*
X204550000Y-32225000D03*
X201550000Y-36775000D03*
X205550000Y-36775000D03*
X206050000Y-36775000D03*
X203050000Y-36775000D03*
X204050000Y-36775000D03*
X205050000Y-36775000D03*
X206050000Y-32225000D03*
X205550000Y-32225000D03*
X205050000Y-32225000D03*
X203050000Y-32225000D03*
X204050000Y-32225000D03*
X201550000Y-32225000D03*
M02*
