G04 #@! TF.GenerationSoftware,KiCad,Pcbnew,(5.1.2)-2*
G04 #@! TF.CreationDate,2019-07-29T12:19:19-07:00*
G04 #@! TF.ProjectId,Pixel Connector Test Board,50697865-6c20-4436-9f6e-6e6563746f72,rev?*
G04 #@! TF.SameCoordinates,Original*
G04 #@! TF.FileFunction,Soldermask,Bot*
G04 #@! TF.FilePolarity,Negative*
%FSLAX46Y46*%
G04 Gerber Fmt 4.6, Leading zero omitted, Abs format (unit mm)*
G04 Created by KiCad (PCBNEW (5.1.2)-2) date 2019-07-29 12:19:19*
%MOMM*%
%LPD*%
G04 APERTURE LIST*
%ADD10C,0.050000*%
%ADD11C,0.100000*%
G04 APERTURE END LIST*
D10*
X253500000Y-59800000D02*
X227500000Y-59800000D01*
X54200000Y-59800000D02*
X227500000Y-59800000D01*
X253500000Y-12100000D02*
X253500000Y-59800000D01*
X54700000Y-12100000D02*
X253500000Y-12100000D01*
X12100000Y-36900000D02*
X12100000Y-59800000D01*
X12100000Y-12100000D02*
X54700000Y-12100000D01*
X12100000Y-59800000D02*
X54200000Y-59800000D01*
X12100000Y-12100000D02*
X12100000Y-36900000D01*
D11*
G36*
X177698254Y-52627818D02*
G01*
X178059365Y-52777395D01*
X178071513Y-52782427D01*
X178323001Y-52950466D01*
X178407436Y-53006884D01*
X178693116Y-53292564D01*
X178917574Y-53628489D01*
X179072182Y-54001746D01*
X179151000Y-54397993D01*
X179151000Y-54802007D01*
X179072182Y-55198254D01*
X178917574Y-55571511D01*
X178917573Y-55571513D01*
X178693116Y-55907436D01*
X178407436Y-56193116D01*
X178071513Y-56417573D01*
X178071512Y-56417574D01*
X178071511Y-56417574D01*
X177698254Y-56572182D01*
X177302007Y-56651000D01*
X176897993Y-56651000D01*
X176501746Y-56572182D01*
X176128489Y-56417574D01*
X176128488Y-56417574D01*
X176128487Y-56417573D01*
X175792564Y-56193116D01*
X175506884Y-55907436D01*
X175282427Y-55571513D01*
X175282426Y-55571511D01*
X175127818Y-55198254D01*
X175049000Y-54802007D01*
X175049000Y-54397993D01*
X175127818Y-54001746D01*
X175282426Y-53628489D01*
X175506884Y-53292564D01*
X175792564Y-53006884D01*
X175876999Y-52950466D01*
X176128487Y-52782427D01*
X176140635Y-52777395D01*
X176501746Y-52627818D01*
X176897993Y-52549000D01*
X177302007Y-52549000D01*
X177698254Y-52627818D01*
X177698254Y-52627818D01*
G37*
G36*
X61298254Y-51227818D02*
G01*
X61671511Y-51382426D01*
X61671513Y-51382427D01*
X62007436Y-51606884D01*
X62293116Y-51892564D01*
X62513643Y-52222605D01*
X62517574Y-52228489D01*
X62672182Y-52601746D01*
X62751000Y-52997993D01*
X62751000Y-53402007D01*
X62672182Y-53798254D01*
X62587893Y-54001745D01*
X62517573Y-54171513D01*
X62293116Y-54507436D01*
X62007436Y-54793116D01*
X61671513Y-55017573D01*
X61671512Y-55017574D01*
X61671511Y-55017574D01*
X61298254Y-55172182D01*
X60902007Y-55251000D01*
X60497993Y-55251000D01*
X60101746Y-55172182D01*
X59728489Y-55017574D01*
X59728488Y-55017574D01*
X59728487Y-55017573D01*
X59392564Y-54793116D01*
X59106884Y-54507436D01*
X58882427Y-54171513D01*
X58812107Y-54001745D01*
X58727818Y-53798254D01*
X58649000Y-53402007D01*
X58649000Y-52997993D01*
X58727818Y-52601746D01*
X58882426Y-52228489D01*
X58886358Y-52222605D01*
X59106884Y-51892564D01*
X59392564Y-51606884D01*
X59728487Y-51382427D01*
X59728489Y-51382426D01*
X60101746Y-51227818D01*
X60497993Y-51149000D01*
X60902007Y-51149000D01*
X61298254Y-51227818D01*
X61298254Y-51227818D01*
G37*
G36*
X155377395Y-51585546D02*
G01*
X155550466Y-51657234D01*
X155550467Y-51657235D01*
X155706227Y-51761310D01*
X155838690Y-51893773D01*
X155881284Y-51957520D01*
X155942766Y-52049534D01*
X156014454Y-52222605D01*
X156051000Y-52406333D01*
X156051000Y-52593667D01*
X156014454Y-52777395D01*
X155942766Y-52950466D01*
X155942765Y-52950467D01*
X155838690Y-53106227D01*
X155706227Y-53238690D01*
X155683092Y-53254148D01*
X155550466Y-53342766D01*
X155377395Y-53414454D01*
X155193667Y-53451000D01*
X155006333Y-53451000D01*
X154822605Y-53414454D01*
X154649534Y-53342766D01*
X154516908Y-53254148D01*
X154493773Y-53238690D01*
X154361310Y-53106227D01*
X154257235Y-52950467D01*
X154257234Y-52950466D01*
X154185546Y-52777395D01*
X154149000Y-52593667D01*
X154149000Y-52406333D01*
X154185546Y-52222605D01*
X154257234Y-52049534D01*
X154318716Y-51957520D01*
X154361310Y-51893773D01*
X154493773Y-51761310D01*
X154649533Y-51657235D01*
X154649534Y-51657234D01*
X154822605Y-51585546D01*
X155006333Y-51549000D01*
X155193667Y-51549000D01*
X155377395Y-51585546D01*
X155377395Y-51585546D01*
G37*
G36*
X87377395Y-51585546D02*
G01*
X87550466Y-51657234D01*
X87550467Y-51657235D01*
X87706227Y-51761310D01*
X87838690Y-51893773D01*
X87881284Y-51957520D01*
X87942766Y-52049534D01*
X88014454Y-52222605D01*
X88051000Y-52406333D01*
X88051000Y-52593667D01*
X88014454Y-52777395D01*
X87942766Y-52950466D01*
X87942765Y-52950467D01*
X87838690Y-53106227D01*
X87706227Y-53238690D01*
X87683092Y-53254148D01*
X87550466Y-53342766D01*
X87377395Y-53414454D01*
X87193667Y-53451000D01*
X87006333Y-53451000D01*
X86822605Y-53414454D01*
X86649534Y-53342766D01*
X86516908Y-53254148D01*
X86493773Y-53238690D01*
X86361310Y-53106227D01*
X86257235Y-52950467D01*
X86257234Y-52950466D01*
X86185546Y-52777395D01*
X86149000Y-52593667D01*
X86149000Y-52406333D01*
X86185546Y-52222605D01*
X86257234Y-52049534D01*
X86318716Y-51957520D01*
X86361310Y-51893773D01*
X86493773Y-51761310D01*
X86649533Y-51657235D01*
X86649534Y-51657234D01*
X86822605Y-51585546D01*
X87006333Y-51549000D01*
X87193667Y-51549000D01*
X87377395Y-51585546D01*
X87377395Y-51585546D01*
G37*
G36*
X32948228Y-51681703D02*
G01*
X33103100Y-51745853D01*
X33242481Y-51838985D01*
X33361015Y-51957519D01*
X33454147Y-52096900D01*
X33518297Y-52251772D01*
X33551000Y-52416184D01*
X33551000Y-52583816D01*
X33518297Y-52748228D01*
X33454147Y-52903100D01*
X33361015Y-53042481D01*
X33242481Y-53161015D01*
X33103100Y-53254147D01*
X32948228Y-53318297D01*
X32783816Y-53351000D01*
X32616184Y-53351000D01*
X32451772Y-53318297D01*
X32296900Y-53254147D01*
X32157519Y-53161015D01*
X32038985Y-53042481D01*
X31945853Y-52903100D01*
X31881703Y-52748228D01*
X31849000Y-52583816D01*
X31849000Y-52416184D01*
X31881703Y-52251772D01*
X31945853Y-52096900D01*
X32038985Y-51957519D01*
X32157519Y-51838985D01*
X32296900Y-51745853D01*
X32451772Y-51681703D01*
X32616184Y-51649000D01*
X32783816Y-51649000D01*
X32948228Y-51681703D01*
X32948228Y-51681703D01*
G37*
G36*
X22948228Y-51181703D02*
G01*
X23103100Y-51245853D01*
X23242481Y-51338985D01*
X23361015Y-51457519D01*
X23454147Y-51596900D01*
X23518297Y-51751772D01*
X23551000Y-51916184D01*
X23551000Y-52083816D01*
X23518297Y-52248228D01*
X23454147Y-52403100D01*
X23361015Y-52542481D01*
X23242481Y-52661015D01*
X23103100Y-52754147D01*
X22948228Y-52818297D01*
X22783816Y-52851000D01*
X22616184Y-52851000D01*
X22451772Y-52818297D01*
X22296900Y-52754147D01*
X22157519Y-52661015D01*
X22038985Y-52542481D01*
X21945853Y-52403100D01*
X21881703Y-52248228D01*
X21849000Y-52083816D01*
X21849000Y-51916184D01*
X21881703Y-51751772D01*
X21945853Y-51596900D01*
X22038985Y-51457519D01*
X22157519Y-51338985D01*
X22296900Y-51245853D01*
X22451772Y-51181703D01*
X22616184Y-51149000D01*
X22783816Y-51149000D01*
X22948228Y-51181703D01*
X22948228Y-51181703D01*
G37*
G36*
X32948228Y-49681703D02*
G01*
X33103100Y-49745853D01*
X33242481Y-49838985D01*
X33361015Y-49957519D01*
X33454147Y-50096900D01*
X33518297Y-50251772D01*
X33551000Y-50416184D01*
X33551000Y-50583816D01*
X33518297Y-50748228D01*
X33454147Y-50903100D01*
X33361015Y-51042481D01*
X33242481Y-51161015D01*
X33103100Y-51254147D01*
X32948228Y-51318297D01*
X32783816Y-51351000D01*
X32616184Y-51351000D01*
X32451772Y-51318297D01*
X32296900Y-51254147D01*
X32157519Y-51161015D01*
X32038985Y-51042481D01*
X31945853Y-50903100D01*
X31881703Y-50748228D01*
X31849000Y-50583816D01*
X31849000Y-50416184D01*
X31881703Y-50251772D01*
X31945853Y-50096900D01*
X32038985Y-49957519D01*
X32157519Y-49838985D01*
X32296900Y-49745853D01*
X32451772Y-49681703D01*
X32616184Y-49649000D01*
X32783816Y-49649000D01*
X32948228Y-49681703D01*
X32948228Y-49681703D01*
G37*
G36*
X22948228Y-49181703D02*
G01*
X23103100Y-49245853D01*
X23242481Y-49338985D01*
X23361015Y-49457519D01*
X23454147Y-49596900D01*
X23518297Y-49751772D01*
X23551000Y-49916184D01*
X23551000Y-50083816D01*
X23518297Y-50248228D01*
X23454147Y-50403100D01*
X23361015Y-50542481D01*
X23242481Y-50661015D01*
X23103100Y-50754147D01*
X22948228Y-50818297D01*
X22783816Y-50851000D01*
X22616184Y-50851000D01*
X22451772Y-50818297D01*
X22296900Y-50754147D01*
X22157519Y-50661015D01*
X22038985Y-50542481D01*
X21945853Y-50403100D01*
X21881703Y-50248228D01*
X21849000Y-50083816D01*
X21849000Y-49916184D01*
X21881703Y-49751772D01*
X21945853Y-49596900D01*
X22038985Y-49457519D01*
X22157519Y-49338985D01*
X22296900Y-49245853D01*
X22451772Y-49181703D01*
X22616184Y-49149000D01*
X22783816Y-49149000D01*
X22948228Y-49181703D01*
X22948228Y-49181703D01*
G37*
G36*
X169077395Y-48485546D02*
G01*
X169250466Y-48557234D01*
X169250467Y-48557235D01*
X169406227Y-48661310D01*
X169538690Y-48793773D01*
X169538691Y-48793775D01*
X169642766Y-48949534D01*
X169714454Y-49122605D01*
X169751000Y-49306333D01*
X169751000Y-49493667D01*
X169714454Y-49677395D01*
X169642766Y-49850466D01*
X169642765Y-49850467D01*
X169538690Y-50006227D01*
X169406227Y-50138690D01*
X169327818Y-50191081D01*
X169250466Y-50242766D01*
X169077395Y-50314454D01*
X168893667Y-50351000D01*
X168706333Y-50351000D01*
X168522605Y-50314454D01*
X168349534Y-50242766D01*
X168272182Y-50191081D01*
X168193773Y-50138690D01*
X168061310Y-50006227D01*
X167957235Y-49850467D01*
X167957234Y-49850466D01*
X167885546Y-49677395D01*
X167849000Y-49493667D01*
X167849000Y-49306333D01*
X167885546Y-49122605D01*
X167957234Y-48949534D01*
X168061309Y-48793775D01*
X168061310Y-48793773D01*
X168193773Y-48661310D01*
X168349533Y-48557235D01*
X168349534Y-48557234D01*
X168522605Y-48485546D01*
X168706333Y-48449000D01*
X168893667Y-48449000D01*
X169077395Y-48485546D01*
X169077395Y-48485546D01*
G37*
G36*
X239077395Y-48485546D02*
G01*
X239250466Y-48557234D01*
X239250467Y-48557235D01*
X239406227Y-48661310D01*
X239538690Y-48793773D01*
X239538691Y-48793775D01*
X239642766Y-48949534D01*
X239714454Y-49122605D01*
X239751000Y-49306333D01*
X239751000Y-49493667D01*
X239714454Y-49677395D01*
X239642766Y-49850466D01*
X239642765Y-49850467D01*
X239538690Y-50006227D01*
X239406227Y-50138690D01*
X239327818Y-50191081D01*
X239250466Y-50242766D01*
X239077395Y-50314454D01*
X238893667Y-50351000D01*
X238706333Y-50351000D01*
X238522605Y-50314454D01*
X238349534Y-50242766D01*
X238272182Y-50191081D01*
X238193773Y-50138690D01*
X238061310Y-50006227D01*
X237957235Y-49850467D01*
X237957234Y-49850466D01*
X237885546Y-49677395D01*
X237849000Y-49493667D01*
X237849000Y-49306333D01*
X237885546Y-49122605D01*
X237957234Y-48949534D01*
X238061309Y-48793775D01*
X238061310Y-48793773D01*
X238193773Y-48661310D01*
X238349533Y-48557235D01*
X238349534Y-48557234D01*
X238522605Y-48485546D01*
X238706333Y-48449000D01*
X238893667Y-48449000D01*
X239077395Y-48485546D01*
X239077395Y-48485546D01*
G37*
G36*
X52677395Y-47785546D02*
G01*
X52850466Y-47857234D01*
X52850467Y-47857235D01*
X53006227Y-47961310D01*
X53138690Y-48093773D01*
X53138691Y-48093775D01*
X53242766Y-48249534D01*
X53314454Y-48422605D01*
X53351000Y-48606333D01*
X53351000Y-48793667D01*
X53314454Y-48977395D01*
X53242766Y-49150466D01*
X53242765Y-49150467D01*
X53138690Y-49306227D01*
X53006227Y-49438690D01*
X52927818Y-49491081D01*
X52850466Y-49542766D01*
X52677395Y-49614454D01*
X52493667Y-49651000D01*
X52306333Y-49651000D01*
X52122605Y-49614454D01*
X51949534Y-49542766D01*
X51872182Y-49491081D01*
X51793773Y-49438690D01*
X51661310Y-49306227D01*
X51557235Y-49150467D01*
X51557234Y-49150466D01*
X51485546Y-48977395D01*
X51449000Y-48793667D01*
X51449000Y-48606333D01*
X51485546Y-48422605D01*
X51557234Y-48249534D01*
X51661309Y-48093775D01*
X51661310Y-48093773D01*
X51793773Y-47961310D01*
X51949533Y-47857235D01*
X51949534Y-47857234D01*
X52122605Y-47785546D01*
X52306333Y-47749000D01*
X52493667Y-47749000D01*
X52677395Y-47785546D01*
X52677395Y-47785546D01*
G37*
G36*
X68577395Y-47785546D02*
G01*
X68750466Y-47857234D01*
X68750467Y-47857235D01*
X68906227Y-47961310D01*
X69038690Y-48093773D01*
X69038691Y-48093775D01*
X69142766Y-48249534D01*
X69214454Y-48422605D01*
X69251000Y-48606333D01*
X69251000Y-48793667D01*
X69214454Y-48977395D01*
X69142766Y-49150466D01*
X69142765Y-49150467D01*
X69038690Y-49306227D01*
X68906227Y-49438690D01*
X68827818Y-49491081D01*
X68750466Y-49542766D01*
X68577395Y-49614454D01*
X68393667Y-49651000D01*
X68206333Y-49651000D01*
X68022605Y-49614454D01*
X67849534Y-49542766D01*
X67772182Y-49491081D01*
X67693773Y-49438690D01*
X67561310Y-49306227D01*
X67457235Y-49150467D01*
X67457234Y-49150466D01*
X67385546Y-48977395D01*
X67349000Y-48793667D01*
X67349000Y-48606333D01*
X67385546Y-48422605D01*
X67457234Y-48249534D01*
X67561309Y-48093775D01*
X67561310Y-48093773D01*
X67693773Y-47961310D01*
X67849533Y-47857235D01*
X67849534Y-47857234D01*
X68022605Y-47785546D01*
X68206333Y-47749000D01*
X68393667Y-47749000D01*
X68577395Y-47785546D01*
X68577395Y-47785546D01*
G37*
G36*
X92377395Y-46585546D02*
G01*
X92550466Y-46657234D01*
X92550467Y-46657235D01*
X92706227Y-46761310D01*
X92838690Y-46893773D01*
X92838691Y-46893775D01*
X92942766Y-47049534D01*
X93014454Y-47222605D01*
X93051000Y-47406333D01*
X93051000Y-47593667D01*
X93014454Y-47777395D01*
X92942766Y-47950466D01*
X92942765Y-47950467D01*
X92838690Y-48106227D01*
X92706227Y-48238690D01*
X92627818Y-48291081D01*
X92550466Y-48342766D01*
X92377395Y-48414454D01*
X92193667Y-48451000D01*
X92006333Y-48451000D01*
X91822605Y-48414454D01*
X91649534Y-48342766D01*
X91572182Y-48291081D01*
X91493773Y-48238690D01*
X91361310Y-48106227D01*
X91257235Y-47950467D01*
X91257234Y-47950466D01*
X91185546Y-47777395D01*
X91149000Y-47593667D01*
X91149000Y-47406333D01*
X91185546Y-47222605D01*
X91257234Y-47049534D01*
X91361309Y-46893775D01*
X91361310Y-46893773D01*
X91493773Y-46761310D01*
X91649533Y-46657235D01*
X91649534Y-46657234D01*
X91822605Y-46585546D01*
X92006333Y-46549000D01*
X92193667Y-46549000D01*
X92377395Y-46585546D01*
X92377395Y-46585546D01*
G37*
G36*
X150377395Y-46585546D02*
G01*
X150550466Y-46657234D01*
X150550467Y-46657235D01*
X150706227Y-46761310D01*
X150838690Y-46893773D01*
X150838691Y-46893775D01*
X150942766Y-47049534D01*
X151014454Y-47222605D01*
X151051000Y-47406333D01*
X151051000Y-47593667D01*
X151014454Y-47777395D01*
X150942766Y-47950466D01*
X150942765Y-47950467D01*
X150838690Y-48106227D01*
X150706227Y-48238690D01*
X150627818Y-48291081D01*
X150550466Y-48342766D01*
X150377395Y-48414454D01*
X150193667Y-48451000D01*
X150006333Y-48451000D01*
X149822605Y-48414454D01*
X149649534Y-48342766D01*
X149572182Y-48291081D01*
X149493773Y-48238690D01*
X149361310Y-48106227D01*
X149257235Y-47950467D01*
X149257234Y-47950466D01*
X149185546Y-47777395D01*
X149149000Y-47593667D01*
X149149000Y-47406333D01*
X149185546Y-47222605D01*
X149257234Y-47049534D01*
X149361309Y-46893775D01*
X149361310Y-46893773D01*
X149493773Y-46761310D01*
X149649533Y-46657235D01*
X149649534Y-46657234D01*
X149822605Y-46585546D01*
X150006333Y-46549000D01*
X150193667Y-46549000D01*
X150377395Y-46585546D01*
X150377395Y-46585546D01*
G37*
G36*
X234077395Y-43485546D02*
G01*
X234250466Y-43557234D01*
X234250467Y-43557235D01*
X234406227Y-43661310D01*
X234538690Y-43793773D01*
X234538691Y-43793775D01*
X234642766Y-43949534D01*
X234714454Y-44122605D01*
X234751000Y-44306333D01*
X234751000Y-44493667D01*
X234714454Y-44677395D01*
X234642766Y-44850466D01*
X234642765Y-44850467D01*
X234538690Y-45006227D01*
X234406227Y-45138690D01*
X234327818Y-45191081D01*
X234250466Y-45242766D01*
X234077395Y-45314454D01*
X233893667Y-45351000D01*
X233706333Y-45351000D01*
X233522605Y-45314454D01*
X233349534Y-45242766D01*
X233272182Y-45191081D01*
X233193773Y-45138690D01*
X233061310Y-45006227D01*
X232957235Y-44850467D01*
X232957234Y-44850466D01*
X232885546Y-44677395D01*
X232849000Y-44493667D01*
X232849000Y-44306333D01*
X232885546Y-44122605D01*
X232957234Y-43949534D01*
X233061309Y-43793775D01*
X233061310Y-43793773D01*
X233193773Y-43661310D01*
X233349533Y-43557235D01*
X233349534Y-43557234D01*
X233522605Y-43485546D01*
X233706333Y-43449000D01*
X233893667Y-43449000D01*
X234077395Y-43485546D01*
X234077395Y-43485546D01*
G37*
G36*
X174077395Y-43485546D02*
G01*
X174250466Y-43557234D01*
X174250467Y-43557235D01*
X174406227Y-43661310D01*
X174538690Y-43793773D01*
X174538691Y-43793775D01*
X174642766Y-43949534D01*
X174714454Y-44122605D01*
X174751000Y-44306333D01*
X174751000Y-44493667D01*
X174714454Y-44677395D01*
X174642766Y-44850466D01*
X174642765Y-44850467D01*
X174538690Y-45006227D01*
X174406227Y-45138690D01*
X174327818Y-45191081D01*
X174250466Y-45242766D01*
X174077395Y-45314454D01*
X173893667Y-45351000D01*
X173706333Y-45351000D01*
X173522605Y-45314454D01*
X173349534Y-45242766D01*
X173272182Y-45191081D01*
X173193773Y-45138690D01*
X173061310Y-45006227D01*
X172957235Y-44850467D01*
X172957234Y-44850466D01*
X172885546Y-44677395D01*
X172849000Y-44493667D01*
X172849000Y-44306333D01*
X172885546Y-44122605D01*
X172957234Y-43949534D01*
X173061309Y-43793775D01*
X173061310Y-43793773D01*
X173193773Y-43661310D01*
X173349533Y-43557235D01*
X173349534Y-43557234D01*
X173522605Y-43485546D01*
X173706333Y-43449000D01*
X173893667Y-43449000D01*
X174077395Y-43485546D01*
X174077395Y-43485546D01*
G37*
G36*
X155377395Y-41585546D02*
G01*
X155550466Y-41657234D01*
X155550467Y-41657235D01*
X155706227Y-41761310D01*
X155838690Y-41893773D01*
X155838691Y-41893775D01*
X155942766Y-42049534D01*
X156014454Y-42222605D01*
X156051000Y-42406333D01*
X156051000Y-42593667D01*
X156014454Y-42777395D01*
X155942766Y-42950466D01*
X155942765Y-42950467D01*
X155838690Y-43106227D01*
X155706227Y-43238690D01*
X155627818Y-43291081D01*
X155550466Y-43342766D01*
X155377395Y-43414454D01*
X155193667Y-43451000D01*
X155006333Y-43451000D01*
X154822605Y-43414454D01*
X154649534Y-43342766D01*
X154572182Y-43291081D01*
X154493773Y-43238690D01*
X154361310Y-43106227D01*
X154257235Y-42950467D01*
X154257234Y-42950466D01*
X154185546Y-42777395D01*
X154149000Y-42593667D01*
X154149000Y-42406333D01*
X154185546Y-42222605D01*
X154257234Y-42049534D01*
X154361309Y-41893775D01*
X154361310Y-41893773D01*
X154493773Y-41761310D01*
X154649533Y-41657235D01*
X154649534Y-41657234D01*
X154822605Y-41585546D01*
X155006333Y-41549000D01*
X155193667Y-41549000D01*
X155377395Y-41585546D01*
X155377395Y-41585546D01*
G37*
G36*
X87377395Y-41585546D02*
G01*
X87550466Y-41657234D01*
X87550467Y-41657235D01*
X87706227Y-41761310D01*
X87838690Y-41893773D01*
X87838691Y-41893775D01*
X87942766Y-42049534D01*
X88014454Y-42222605D01*
X88051000Y-42406333D01*
X88051000Y-42593667D01*
X88014454Y-42777395D01*
X87942766Y-42950466D01*
X87942765Y-42950467D01*
X87838690Y-43106227D01*
X87706227Y-43238690D01*
X87627818Y-43291081D01*
X87550466Y-43342766D01*
X87377395Y-43414454D01*
X87193667Y-43451000D01*
X87006333Y-43451000D01*
X86822605Y-43414454D01*
X86649534Y-43342766D01*
X86572182Y-43291081D01*
X86493773Y-43238690D01*
X86361310Y-43106227D01*
X86257235Y-42950467D01*
X86257234Y-42950466D01*
X86185546Y-42777395D01*
X86149000Y-42593667D01*
X86149000Y-42406333D01*
X86185546Y-42222605D01*
X86257234Y-42049534D01*
X86361309Y-41893775D01*
X86361310Y-41893773D01*
X86493773Y-41761310D01*
X86649533Y-41657235D01*
X86649534Y-41657234D01*
X86822605Y-41585546D01*
X87006333Y-41549000D01*
X87193667Y-41549000D01*
X87377395Y-41585546D01*
X87377395Y-41585546D01*
G37*
G36*
X60877395Y-39285546D02*
G01*
X61050466Y-39357234D01*
X61050467Y-39357235D01*
X61206227Y-39461310D01*
X61338690Y-39593773D01*
X61338691Y-39593775D01*
X61442766Y-39749534D01*
X61514454Y-39922605D01*
X61551000Y-40106333D01*
X61551000Y-40293667D01*
X61514454Y-40477395D01*
X61442766Y-40650466D01*
X61442765Y-40650467D01*
X61338690Y-40806227D01*
X61206227Y-40938690D01*
X61127818Y-40991081D01*
X61050466Y-41042766D01*
X60877395Y-41114454D01*
X60693667Y-41151000D01*
X60506333Y-41151000D01*
X60322605Y-41114454D01*
X60149534Y-41042766D01*
X60072182Y-40991081D01*
X59993773Y-40938690D01*
X59861310Y-40806227D01*
X59757235Y-40650467D01*
X59757234Y-40650466D01*
X59685546Y-40477395D01*
X59649000Y-40293667D01*
X59649000Y-40106333D01*
X59685546Y-39922605D01*
X59757234Y-39749534D01*
X59861309Y-39593775D01*
X59861310Y-39593773D01*
X59993773Y-39461310D01*
X60149533Y-39357235D01*
X60149534Y-39357234D01*
X60322605Y-39285546D01*
X60506333Y-39249000D01*
X60693667Y-39249000D01*
X60877395Y-39285546D01*
X60877395Y-39285546D01*
G37*
G36*
X75477395Y-39285546D02*
G01*
X75650466Y-39357234D01*
X75650467Y-39357235D01*
X75806227Y-39461310D01*
X75938690Y-39593773D01*
X75938691Y-39593775D01*
X76042766Y-39749534D01*
X76114454Y-39922605D01*
X76151000Y-40106333D01*
X76151000Y-40293667D01*
X76114454Y-40477395D01*
X76042766Y-40650466D01*
X76042765Y-40650467D01*
X75938690Y-40806227D01*
X75806227Y-40938690D01*
X75727818Y-40991081D01*
X75650466Y-41042766D01*
X75477395Y-41114454D01*
X75293667Y-41151000D01*
X75106333Y-41151000D01*
X74922605Y-41114454D01*
X74749534Y-41042766D01*
X74672182Y-40991081D01*
X74593773Y-40938690D01*
X74461310Y-40806227D01*
X74357235Y-40650467D01*
X74357234Y-40650466D01*
X74285546Y-40477395D01*
X74249000Y-40293667D01*
X74249000Y-40106333D01*
X74285546Y-39922605D01*
X74357234Y-39749534D01*
X74461309Y-39593775D01*
X74461310Y-39593773D01*
X74593773Y-39461310D01*
X74749533Y-39357235D01*
X74749534Y-39357234D01*
X74922605Y-39285546D01*
X75106333Y-39249000D01*
X75293667Y-39249000D01*
X75477395Y-39285546D01*
X75477395Y-39285546D01*
G37*
G36*
X239077395Y-38485546D02*
G01*
X239250466Y-38557234D01*
X239250467Y-38557235D01*
X239406227Y-38661310D01*
X239538690Y-38793773D01*
X239538691Y-38793775D01*
X239642766Y-38949534D01*
X239714454Y-39122605D01*
X239751000Y-39306333D01*
X239751000Y-39493667D01*
X239714454Y-39677395D01*
X239642766Y-39850466D01*
X239642765Y-39850467D01*
X239538690Y-40006227D01*
X239406227Y-40138690D01*
X239327818Y-40191081D01*
X239250466Y-40242766D01*
X239077395Y-40314454D01*
X238893667Y-40351000D01*
X238706333Y-40351000D01*
X238522605Y-40314454D01*
X238349534Y-40242766D01*
X238272182Y-40191081D01*
X238193773Y-40138690D01*
X238061310Y-40006227D01*
X237957235Y-39850467D01*
X237957234Y-39850466D01*
X237885546Y-39677395D01*
X237849000Y-39493667D01*
X237849000Y-39306333D01*
X237885546Y-39122605D01*
X237957234Y-38949534D01*
X238061309Y-38793775D01*
X238061310Y-38793773D01*
X238193773Y-38661310D01*
X238349533Y-38557235D01*
X238349534Y-38557234D01*
X238522605Y-38485546D01*
X238706333Y-38449000D01*
X238893667Y-38449000D01*
X239077395Y-38485546D01*
X239077395Y-38485546D01*
G37*
G36*
X169077395Y-38485546D02*
G01*
X169250466Y-38557234D01*
X169250467Y-38557235D01*
X169406227Y-38661310D01*
X169538690Y-38793773D01*
X169538691Y-38793775D01*
X169642766Y-38949534D01*
X169714454Y-39122605D01*
X169751000Y-39306333D01*
X169751000Y-39493667D01*
X169714454Y-39677395D01*
X169642766Y-39850466D01*
X169642765Y-39850467D01*
X169538690Y-40006227D01*
X169406227Y-40138690D01*
X169327818Y-40191081D01*
X169250466Y-40242766D01*
X169077395Y-40314454D01*
X168893667Y-40351000D01*
X168706333Y-40351000D01*
X168522605Y-40314454D01*
X168349534Y-40242766D01*
X168272182Y-40191081D01*
X168193773Y-40138690D01*
X168061310Y-40006227D01*
X167957235Y-39850467D01*
X167957234Y-39850466D01*
X167885546Y-39677395D01*
X167849000Y-39493667D01*
X167849000Y-39306333D01*
X167885546Y-39122605D01*
X167957234Y-38949534D01*
X168061309Y-38793775D01*
X168061310Y-38793773D01*
X168193773Y-38661310D01*
X168349533Y-38557235D01*
X168349534Y-38557234D01*
X168522605Y-38485546D01*
X168706333Y-38449000D01*
X168893667Y-38449000D01*
X169077395Y-38485546D01*
X169077395Y-38485546D01*
G37*
G36*
X92377395Y-36585546D02*
G01*
X92550466Y-36657234D01*
X92550467Y-36657235D01*
X92706227Y-36761310D01*
X92838690Y-36893773D01*
X92838691Y-36893775D01*
X92942766Y-37049534D01*
X93014454Y-37222605D01*
X93051000Y-37406333D01*
X93051000Y-37593667D01*
X93014454Y-37777395D01*
X92942766Y-37950466D01*
X92942765Y-37950467D01*
X92838690Y-38106227D01*
X92706227Y-38238690D01*
X92627818Y-38291081D01*
X92550466Y-38342766D01*
X92377395Y-38414454D01*
X92193667Y-38451000D01*
X92006333Y-38451000D01*
X91822605Y-38414454D01*
X91649534Y-38342766D01*
X91572182Y-38291081D01*
X91493773Y-38238690D01*
X91361310Y-38106227D01*
X91257235Y-37950467D01*
X91257234Y-37950466D01*
X91185546Y-37777395D01*
X91149000Y-37593667D01*
X91149000Y-37406333D01*
X91185546Y-37222605D01*
X91257234Y-37049534D01*
X91361309Y-36893775D01*
X91361310Y-36893773D01*
X91493773Y-36761310D01*
X91649533Y-36657235D01*
X91649534Y-36657234D01*
X91822605Y-36585546D01*
X92006333Y-36549000D01*
X92193667Y-36549000D01*
X92377395Y-36585546D01*
X92377395Y-36585546D01*
G37*
G36*
X150377395Y-36585546D02*
G01*
X150550466Y-36657234D01*
X150550467Y-36657235D01*
X150706227Y-36761310D01*
X150838690Y-36893773D01*
X150838691Y-36893775D01*
X150942766Y-37049534D01*
X151014454Y-37222605D01*
X151051000Y-37406333D01*
X151051000Y-37593667D01*
X151014454Y-37777395D01*
X150942766Y-37950466D01*
X150942765Y-37950467D01*
X150838690Y-38106227D01*
X150706227Y-38238690D01*
X150627818Y-38291081D01*
X150550466Y-38342766D01*
X150377395Y-38414454D01*
X150193667Y-38451000D01*
X150006333Y-38451000D01*
X149822605Y-38414454D01*
X149649534Y-38342766D01*
X149572182Y-38291081D01*
X149493773Y-38238690D01*
X149361310Y-38106227D01*
X149257235Y-37950467D01*
X149257234Y-37950466D01*
X149185546Y-37777395D01*
X149149000Y-37593667D01*
X149149000Y-37406333D01*
X149185546Y-37222605D01*
X149257234Y-37049534D01*
X149361309Y-36893775D01*
X149361310Y-36893773D01*
X149493773Y-36761310D01*
X149649533Y-36657235D01*
X149649534Y-36657234D01*
X149822605Y-36585546D01*
X150006333Y-36549000D01*
X150193667Y-36549000D01*
X150377395Y-36585546D01*
X150377395Y-36585546D01*
G37*
G36*
X174077395Y-33485546D02*
G01*
X174250466Y-33557234D01*
X174250467Y-33557235D01*
X174406227Y-33661310D01*
X174538690Y-33793773D01*
X174538691Y-33793775D01*
X174642766Y-33949534D01*
X174714454Y-34122605D01*
X174751000Y-34306333D01*
X174751000Y-34493667D01*
X174714454Y-34677395D01*
X174642766Y-34850466D01*
X174642765Y-34850467D01*
X174538690Y-35006227D01*
X174406227Y-35138690D01*
X174327818Y-35191081D01*
X174250466Y-35242766D01*
X174077395Y-35314454D01*
X173893667Y-35351000D01*
X173706333Y-35351000D01*
X173522605Y-35314454D01*
X173349534Y-35242766D01*
X173272182Y-35191081D01*
X173193773Y-35138690D01*
X173061310Y-35006227D01*
X172957235Y-34850467D01*
X172957234Y-34850466D01*
X172885546Y-34677395D01*
X172849000Y-34493667D01*
X172849000Y-34306333D01*
X172885546Y-34122605D01*
X172957234Y-33949534D01*
X173061309Y-33793775D01*
X173061310Y-33793773D01*
X173193773Y-33661310D01*
X173349533Y-33557235D01*
X173349534Y-33557234D01*
X173522605Y-33485546D01*
X173706333Y-33449000D01*
X173893667Y-33449000D01*
X174077395Y-33485546D01*
X174077395Y-33485546D01*
G37*
G36*
X234077395Y-33485546D02*
G01*
X234250466Y-33557234D01*
X234250467Y-33557235D01*
X234406227Y-33661310D01*
X234538690Y-33793773D01*
X234538691Y-33793775D01*
X234642766Y-33949534D01*
X234714454Y-34122605D01*
X234751000Y-34306333D01*
X234751000Y-34493667D01*
X234714454Y-34677395D01*
X234642766Y-34850466D01*
X234642765Y-34850467D01*
X234538690Y-35006227D01*
X234406227Y-35138690D01*
X234327818Y-35191081D01*
X234250466Y-35242766D01*
X234077395Y-35314454D01*
X233893667Y-35351000D01*
X233706333Y-35351000D01*
X233522605Y-35314454D01*
X233349534Y-35242766D01*
X233272182Y-35191081D01*
X233193773Y-35138690D01*
X233061310Y-35006227D01*
X232957235Y-34850467D01*
X232957234Y-34850466D01*
X232885546Y-34677395D01*
X232849000Y-34493667D01*
X232849000Y-34306333D01*
X232885546Y-34122605D01*
X232957234Y-33949534D01*
X233061309Y-33793775D01*
X233061310Y-33793773D01*
X233193773Y-33661310D01*
X233349533Y-33557235D01*
X233349534Y-33557234D01*
X233522605Y-33485546D01*
X233706333Y-33449000D01*
X233893667Y-33449000D01*
X234077395Y-33485546D01*
X234077395Y-33485546D01*
G37*
G36*
X155377395Y-31585546D02*
G01*
X155550466Y-31657234D01*
X155550467Y-31657235D01*
X155706227Y-31761310D01*
X155838690Y-31893773D01*
X155838691Y-31893775D01*
X155942766Y-32049534D01*
X156014454Y-32222605D01*
X156051000Y-32406333D01*
X156051000Y-32593667D01*
X156014454Y-32777395D01*
X155942766Y-32950466D01*
X155942765Y-32950467D01*
X155838690Y-33106227D01*
X155706227Y-33238690D01*
X155627818Y-33291081D01*
X155550466Y-33342766D01*
X155377395Y-33414454D01*
X155193667Y-33451000D01*
X155006333Y-33451000D01*
X154822605Y-33414454D01*
X154649534Y-33342766D01*
X154572182Y-33291081D01*
X154493773Y-33238690D01*
X154361310Y-33106227D01*
X154257235Y-32950467D01*
X154257234Y-32950466D01*
X154185546Y-32777395D01*
X154149000Y-32593667D01*
X154149000Y-32406333D01*
X154185546Y-32222605D01*
X154257234Y-32049534D01*
X154361309Y-31893775D01*
X154361310Y-31893773D01*
X154493773Y-31761310D01*
X154649533Y-31657235D01*
X154649534Y-31657234D01*
X154822605Y-31585546D01*
X155006333Y-31549000D01*
X155193667Y-31549000D01*
X155377395Y-31585546D01*
X155377395Y-31585546D01*
G37*
G36*
X87377395Y-31585546D02*
G01*
X87550466Y-31657234D01*
X87550467Y-31657235D01*
X87706227Y-31761310D01*
X87838690Y-31893773D01*
X87838691Y-31893775D01*
X87942766Y-32049534D01*
X88014454Y-32222605D01*
X88051000Y-32406333D01*
X88051000Y-32593667D01*
X88014454Y-32777395D01*
X87942766Y-32950466D01*
X87942765Y-32950467D01*
X87838690Y-33106227D01*
X87706227Y-33238690D01*
X87627818Y-33291081D01*
X87550466Y-33342766D01*
X87377395Y-33414454D01*
X87193667Y-33451000D01*
X87006333Y-33451000D01*
X86822605Y-33414454D01*
X86649534Y-33342766D01*
X86572182Y-33291081D01*
X86493773Y-33238690D01*
X86361310Y-33106227D01*
X86257235Y-32950467D01*
X86257234Y-32950466D01*
X86185546Y-32777395D01*
X86149000Y-32593667D01*
X86149000Y-32406333D01*
X86185546Y-32222605D01*
X86257234Y-32049534D01*
X86361309Y-31893775D01*
X86361310Y-31893773D01*
X86493773Y-31761310D01*
X86649533Y-31657235D01*
X86649534Y-31657234D01*
X86822605Y-31585546D01*
X87006333Y-31549000D01*
X87193667Y-31549000D01*
X87377395Y-31585546D01*
X87377395Y-31585546D01*
G37*
G36*
X33877395Y-29485546D02*
G01*
X34050466Y-29557234D01*
X34050467Y-29557235D01*
X34206227Y-29661310D01*
X34338690Y-29793773D01*
X34391081Y-29872182D01*
X34442766Y-29949534D01*
X34514454Y-30122605D01*
X34551000Y-30306333D01*
X34551000Y-30493667D01*
X34514454Y-30677395D01*
X34442766Y-30850466D01*
X34442765Y-30850467D01*
X34338690Y-31006227D01*
X34206227Y-31138690D01*
X34127818Y-31191081D01*
X34050466Y-31242766D01*
X33877395Y-31314454D01*
X33693667Y-31351000D01*
X33506333Y-31351000D01*
X33322605Y-31314454D01*
X33149534Y-31242766D01*
X33072182Y-31191081D01*
X32993773Y-31138690D01*
X32861310Y-31006227D01*
X32757235Y-30850467D01*
X32757234Y-30850466D01*
X32685546Y-30677395D01*
X32649000Y-30493667D01*
X32649000Y-30306333D01*
X32685546Y-30122605D01*
X32757234Y-29949534D01*
X32808919Y-29872182D01*
X32861310Y-29793773D01*
X32993773Y-29661310D01*
X33149533Y-29557235D01*
X33149534Y-29557234D01*
X33322605Y-29485546D01*
X33506333Y-29449000D01*
X33693667Y-29449000D01*
X33877395Y-29485546D01*
X33877395Y-29485546D01*
G37*
G36*
X17977395Y-29485546D02*
G01*
X18150466Y-29557234D01*
X18150467Y-29557235D01*
X18306227Y-29661310D01*
X18438690Y-29793773D01*
X18491081Y-29872182D01*
X18542766Y-29949534D01*
X18614454Y-30122605D01*
X18651000Y-30306333D01*
X18651000Y-30493667D01*
X18614454Y-30677395D01*
X18542766Y-30850466D01*
X18542765Y-30850467D01*
X18438690Y-31006227D01*
X18306227Y-31138690D01*
X18227818Y-31191081D01*
X18150466Y-31242766D01*
X17977395Y-31314454D01*
X17793667Y-31351000D01*
X17606333Y-31351000D01*
X17422605Y-31314454D01*
X17249534Y-31242766D01*
X17172182Y-31191081D01*
X17093773Y-31138690D01*
X16961310Y-31006227D01*
X16857235Y-30850467D01*
X16857234Y-30850466D01*
X16785546Y-30677395D01*
X16749000Y-30493667D01*
X16749000Y-30306333D01*
X16785546Y-30122605D01*
X16857234Y-29949534D01*
X16908919Y-29872182D01*
X16961310Y-29793773D01*
X17093773Y-29661310D01*
X17249533Y-29557235D01*
X17249534Y-29557234D01*
X17422605Y-29485546D01*
X17606333Y-29449000D01*
X17793667Y-29449000D01*
X17977395Y-29485546D01*
X17977395Y-29485546D01*
G37*
G36*
X169077395Y-28485546D02*
G01*
X169250466Y-28557234D01*
X169250467Y-28557235D01*
X169406227Y-28661310D01*
X169538690Y-28793773D01*
X169538691Y-28793775D01*
X169642766Y-28949534D01*
X169714454Y-29122605D01*
X169751000Y-29306333D01*
X169751000Y-29493667D01*
X169714454Y-29677395D01*
X169642766Y-29850466D01*
X169642765Y-29850467D01*
X169538690Y-30006227D01*
X169406227Y-30138690D01*
X169327818Y-30191081D01*
X169250466Y-30242766D01*
X169077395Y-30314454D01*
X168893667Y-30351000D01*
X168706333Y-30351000D01*
X168522605Y-30314454D01*
X168349534Y-30242766D01*
X168272182Y-30191081D01*
X168193773Y-30138690D01*
X168061310Y-30006227D01*
X167957235Y-29850467D01*
X167957234Y-29850466D01*
X167885546Y-29677395D01*
X167849000Y-29493667D01*
X167849000Y-29306333D01*
X167885546Y-29122605D01*
X167957234Y-28949534D01*
X168061309Y-28793775D01*
X168061310Y-28793773D01*
X168193773Y-28661310D01*
X168349533Y-28557235D01*
X168349534Y-28557234D01*
X168522605Y-28485546D01*
X168706333Y-28449000D01*
X168893667Y-28449000D01*
X169077395Y-28485546D01*
X169077395Y-28485546D01*
G37*
G36*
X239077395Y-28485546D02*
G01*
X239250466Y-28557234D01*
X239250467Y-28557235D01*
X239406227Y-28661310D01*
X239538690Y-28793773D01*
X239538691Y-28793775D01*
X239642766Y-28949534D01*
X239714454Y-29122605D01*
X239751000Y-29306333D01*
X239751000Y-29493667D01*
X239714454Y-29677395D01*
X239642766Y-29850466D01*
X239642765Y-29850467D01*
X239538690Y-30006227D01*
X239406227Y-30138690D01*
X239327818Y-30191081D01*
X239250466Y-30242766D01*
X239077395Y-30314454D01*
X238893667Y-30351000D01*
X238706333Y-30351000D01*
X238522605Y-30314454D01*
X238349534Y-30242766D01*
X238272182Y-30191081D01*
X238193773Y-30138690D01*
X238061310Y-30006227D01*
X237957235Y-29850467D01*
X237957234Y-29850466D01*
X237885546Y-29677395D01*
X237849000Y-29493667D01*
X237849000Y-29306333D01*
X237885546Y-29122605D01*
X237957234Y-28949534D01*
X238061309Y-28793775D01*
X238061310Y-28793773D01*
X238193773Y-28661310D01*
X238349533Y-28557235D01*
X238349534Y-28557234D01*
X238522605Y-28485546D01*
X238706333Y-28449000D01*
X238893667Y-28449000D01*
X239077395Y-28485546D01*
X239077395Y-28485546D01*
G37*
G36*
X92377395Y-26585546D02*
G01*
X92550466Y-26657234D01*
X92550467Y-26657235D01*
X92706227Y-26761310D01*
X92838690Y-26893773D01*
X92838691Y-26893775D01*
X92942766Y-27049534D01*
X93014454Y-27222605D01*
X93051000Y-27406333D01*
X93051000Y-27593667D01*
X93014454Y-27777395D01*
X92942766Y-27950466D01*
X92942765Y-27950467D01*
X92838690Y-28106227D01*
X92706227Y-28238690D01*
X92627818Y-28291081D01*
X92550466Y-28342766D01*
X92377395Y-28414454D01*
X92193667Y-28451000D01*
X92006333Y-28451000D01*
X91822605Y-28414454D01*
X91649534Y-28342766D01*
X91572182Y-28291081D01*
X91493773Y-28238690D01*
X91361310Y-28106227D01*
X91257235Y-27950467D01*
X91257234Y-27950466D01*
X91185546Y-27777395D01*
X91149000Y-27593667D01*
X91149000Y-27406333D01*
X91185546Y-27222605D01*
X91257234Y-27049534D01*
X91361309Y-26893775D01*
X91361310Y-26893773D01*
X91493773Y-26761310D01*
X91649533Y-26657235D01*
X91649534Y-26657234D01*
X91822605Y-26585546D01*
X92006333Y-26549000D01*
X92193667Y-26549000D01*
X92377395Y-26585546D01*
X92377395Y-26585546D01*
G37*
G36*
X150377395Y-26585546D02*
G01*
X150550466Y-26657234D01*
X150550467Y-26657235D01*
X150706227Y-26761310D01*
X150838690Y-26893773D01*
X150838691Y-26893775D01*
X150942766Y-27049534D01*
X151014454Y-27222605D01*
X151051000Y-27406333D01*
X151051000Y-27593667D01*
X151014454Y-27777395D01*
X150942766Y-27950466D01*
X150942765Y-27950467D01*
X150838690Y-28106227D01*
X150706227Y-28238690D01*
X150627818Y-28291081D01*
X150550466Y-28342766D01*
X150377395Y-28414454D01*
X150193667Y-28451000D01*
X150006333Y-28451000D01*
X149822605Y-28414454D01*
X149649534Y-28342766D01*
X149572182Y-28291081D01*
X149493773Y-28238690D01*
X149361310Y-28106227D01*
X149257235Y-27950467D01*
X149257234Y-27950466D01*
X149185546Y-27777395D01*
X149149000Y-27593667D01*
X149149000Y-27406333D01*
X149185546Y-27222605D01*
X149257234Y-27049534D01*
X149361309Y-26893775D01*
X149361310Y-26893773D01*
X149493773Y-26761310D01*
X149649533Y-26657235D01*
X149649534Y-26657234D01*
X149822605Y-26585546D01*
X150006333Y-26549000D01*
X150193667Y-26549000D01*
X150377395Y-26585546D01*
X150377395Y-26585546D01*
G37*
G36*
X234077395Y-23485546D02*
G01*
X234250466Y-23557234D01*
X234250467Y-23557235D01*
X234406227Y-23661310D01*
X234538690Y-23793773D01*
X234538691Y-23793775D01*
X234642766Y-23949534D01*
X234714454Y-24122605D01*
X234751000Y-24306333D01*
X234751000Y-24493667D01*
X234714454Y-24677395D01*
X234642766Y-24850466D01*
X234642765Y-24850467D01*
X234538690Y-25006227D01*
X234406227Y-25138690D01*
X234327818Y-25191081D01*
X234250466Y-25242766D01*
X234077395Y-25314454D01*
X233893667Y-25351000D01*
X233706333Y-25351000D01*
X233522605Y-25314454D01*
X233349534Y-25242766D01*
X233272182Y-25191081D01*
X233193773Y-25138690D01*
X233061310Y-25006227D01*
X232957235Y-24850467D01*
X232957234Y-24850466D01*
X232885546Y-24677395D01*
X232849000Y-24493667D01*
X232849000Y-24306333D01*
X232885546Y-24122605D01*
X232957234Y-23949534D01*
X233061309Y-23793775D01*
X233061310Y-23793773D01*
X233193773Y-23661310D01*
X233349533Y-23557235D01*
X233349534Y-23557234D01*
X233522605Y-23485546D01*
X233706333Y-23449000D01*
X233893667Y-23449000D01*
X234077395Y-23485546D01*
X234077395Y-23485546D01*
G37*
G36*
X174077395Y-23485546D02*
G01*
X174250466Y-23557234D01*
X174250467Y-23557235D01*
X174406227Y-23661310D01*
X174538690Y-23793773D01*
X174538691Y-23793775D01*
X174642766Y-23949534D01*
X174714454Y-24122605D01*
X174751000Y-24306333D01*
X174751000Y-24493667D01*
X174714454Y-24677395D01*
X174642766Y-24850466D01*
X174642765Y-24850467D01*
X174538690Y-25006227D01*
X174406227Y-25138690D01*
X174327818Y-25191081D01*
X174250466Y-25242766D01*
X174077395Y-25314454D01*
X173893667Y-25351000D01*
X173706333Y-25351000D01*
X173522605Y-25314454D01*
X173349534Y-25242766D01*
X173272182Y-25191081D01*
X173193773Y-25138690D01*
X173061310Y-25006227D01*
X172957235Y-24850467D01*
X172957234Y-24850466D01*
X172885546Y-24677395D01*
X172849000Y-24493667D01*
X172849000Y-24306333D01*
X172885546Y-24122605D01*
X172957234Y-23949534D01*
X173061309Y-23793775D01*
X173061310Y-23793773D01*
X173193773Y-23661310D01*
X173349533Y-23557235D01*
X173349534Y-23557234D01*
X173522605Y-23485546D01*
X173706333Y-23449000D01*
X173893667Y-23449000D01*
X174077395Y-23485546D01*
X174077395Y-23485546D01*
G37*
G36*
X155377395Y-21585546D02*
G01*
X155550466Y-21657234D01*
X155550467Y-21657235D01*
X155706227Y-21761310D01*
X155838690Y-21893773D01*
X155838691Y-21893775D01*
X155942766Y-22049534D01*
X156014454Y-22222605D01*
X156051000Y-22406333D01*
X156051000Y-22593667D01*
X156014454Y-22777395D01*
X155942766Y-22950466D01*
X155942765Y-22950467D01*
X155838690Y-23106227D01*
X155706227Y-23238690D01*
X155627818Y-23291081D01*
X155550466Y-23342766D01*
X155377395Y-23414454D01*
X155193667Y-23451000D01*
X155006333Y-23451000D01*
X154822605Y-23414454D01*
X154649534Y-23342766D01*
X154572182Y-23291081D01*
X154493773Y-23238690D01*
X154361310Y-23106227D01*
X154257235Y-22950467D01*
X154257234Y-22950466D01*
X154185546Y-22777395D01*
X154149000Y-22593667D01*
X154149000Y-22406333D01*
X154185546Y-22222605D01*
X154257234Y-22049534D01*
X154361309Y-21893775D01*
X154361310Y-21893773D01*
X154493773Y-21761310D01*
X154649533Y-21657235D01*
X154649534Y-21657234D01*
X154822605Y-21585546D01*
X155006333Y-21549000D01*
X155193667Y-21549000D01*
X155377395Y-21585546D01*
X155377395Y-21585546D01*
G37*
G36*
X87377395Y-21585546D02*
G01*
X87550466Y-21657234D01*
X87550467Y-21657235D01*
X87706227Y-21761310D01*
X87838690Y-21893773D01*
X87838691Y-21893775D01*
X87942766Y-22049534D01*
X88014454Y-22222605D01*
X88051000Y-22406333D01*
X88051000Y-22593667D01*
X88014454Y-22777395D01*
X87942766Y-22950466D01*
X87942765Y-22950467D01*
X87838690Y-23106227D01*
X87706227Y-23238690D01*
X87627818Y-23291081D01*
X87550466Y-23342766D01*
X87377395Y-23414454D01*
X87193667Y-23451000D01*
X87006333Y-23451000D01*
X86822605Y-23414454D01*
X86649534Y-23342766D01*
X86572182Y-23291081D01*
X86493773Y-23238690D01*
X86361310Y-23106227D01*
X86257235Y-22950467D01*
X86257234Y-22950466D01*
X86185546Y-22777395D01*
X86149000Y-22593667D01*
X86149000Y-22406333D01*
X86185546Y-22222605D01*
X86257234Y-22049534D01*
X86361309Y-21893775D01*
X86361310Y-21893773D01*
X86493773Y-21761310D01*
X86649533Y-21657235D01*
X86649534Y-21657234D01*
X86822605Y-21585546D01*
X87006333Y-21549000D01*
X87193667Y-21549000D01*
X87377395Y-21585546D01*
X87377395Y-21585546D01*
G37*
G36*
X40777395Y-20985546D02*
G01*
X40950466Y-21057234D01*
X41027818Y-21108919D01*
X41106227Y-21161310D01*
X41238690Y-21293773D01*
X41238691Y-21293775D01*
X41342766Y-21449534D01*
X41414454Y-21622605D01*
X41451000Y-21806333D01*
X41451000Y-21993667D01*
X41414454Y-22177395D01*
X41342766Y-22350466D01*
X41342765Y-22350467D01*
X41238690Y-22506227D01*
X41106227Y-22638690D01*
X41027818Y-22691081D01*
X40950466Y-22742766D01*
X40777395Y-22814454D01*
X40593667Y-22851000D01*
X40406333Y-22851000D01*
X40222605Y-22814454D01*
X40049534Y-22742766D01*
X39972182Y-22691081D01*
X39893773Y-22638690D01*
X39761310Y-22506227D01*
X39657235Y-22350467D01*
X39657234Y-22350466D01*
X39585546Y-22177395D01*
X39549000Y-21993667D01*
X39549000Y-21806333D01*
X39585546Y-21622605D01*
X39657234Y-21449534D01*
X39761309Y-21293775D01*
X39761310Y-21293773D01*
X39893773Y-21161310D01*
X39972182Y-21108919D01*
X40049534Y-21057234D01*
X40222605Y-20985546D01*
X40406333Y-20949000D01*
X40593667Y-20949000D01*
X40777395Y-20985546D01*
X40777395Y-20985546D01*
G37*
G36*
X26177395Y-20985546D02*
G01*
X26350466Y-21057234D01*
X26427818Y-21108919D01*
X26506227Y-21161310D01*
X26638690Y-21293773D01*
X26638691Y-21293775D01*
X26742766Y-21449534D01*
X26814454Y-21622605D01*
X26851000Y-21806333D01*
X26851000Y-21993667D01*
X26814454Y-22177395D01*
X26742766Y-22350466D01*
X26742765Y-22350467D01*
X26638690Y-22506227D01*
X26506227Y-22638690D01*
X26427818Y-22691081D01*
X26350466Y-22742766D01*
X26177395Y-22814454D01*
X25993667Y-22851000D01*
X25806333Y-22851000D01*
X25622605Y-22814454D01*
X25449534Y-22742766D01*
X25372182Y-22691081D01*
X25293773Y-22638690D01*
X25161310Y-22506227D01*
X25057235Y-22350467D01*
X25057234Y-22350466D01*
X24985546Y-22177395D01*
X24949000Y-21993667D01*
X24949000Y-21806333D01*
X24985546Y-21622605D01*
X25057234Y-21449534D01*
X25161309Y-21293775D01*
X25161310Y-21293773D01*
X25293773Y-21161310D01*
X25372182Y-21108919D01*
X25449534Y-21057234D01*
X25622605Y-20985546D01*
X25806333Y-20949000D01*
X25993667Y-20949000D01*
X26177395Y-20985546D01*
X26177395Y-20985546D01*
G37*
G36*
X57398228Y-20081703D02*
G01*
X57553100Y-20145853D01*
X57692481Y-20238985D01*
X57811015Y-20357519D01*
X57904147Y-20496900D01*
X57968297Y-20651772D01*
X58001000Y-20816184D01*
X58001000Y-20983816D01*
X57968297Y-21148228D01*
X57904147Y-21303100D01*
X57811015Y-21442481D01*
X57692481Y-21561015D01*
X57553100Y-21654147D01*
X57398228Y-21718297D01*
X57233816Y-21751000D01*
X57066184Y-21751000D01*
X56901772Y-21718297D01*
X56746900Y-21654147D01*
X56607519Y-21561015D01*
X56488985Y-21442481D01*
X56395853Y-21303100D01*
X56331703Y-21148228D01*
X56299000Y-20983816D01*
X56299000Y-20816184D01*
X56331703Y-20651772D01*
X56395853Y-20496900D01*
X56488985Y-20357519D01*
X56607519Y-20238985D01*
X56746900Y-20145853D01*
X56901772Y-20081703D01*
X57066184Y-20049000D01*
X57233816Y-20049000D01*
X57398228Y-20081703D01*
X57398228Y-20081703D01*
G37*
G36*
X71098228Y-19581703D02*
G01*
X71253100Y-19645853D01*
X71392481Y-19738985D01*
X71511015Y-19857519D01*
X71604147Y-19996900D01*
X71668297Y-20151772D01*
X71701000Y-20316184D01*
X71701000Y-20483816D01*
X71668297Y-20648228D01*
X71604147Y-20803100D01*
X71511015Y-20942481D01*
X71392481Y-21061015D01*
X71253100Y-21154147D01*
X71098228Y-21218297D01*
X70933816Y-21251000D01*
X70766184Y-21251000D01*
X70601772Y-21218297D01*
X70446900Y-21154147D01*
X70307519Y-21061015D01*
X70188985Y-20942481D01*
X70095853Y-20803100D01*
X70031703Y-20648228D01*
X69999000Y-20483816D01*
X69999000Y-20316184D01*
X70031703Y-20151772D01*
X70095853Y-19996900D01*
X70188985Y-19857519D01*
X70307519Y-19738985D01*
X70446900Y-19645853D01*
X70601772Y-19581703D01*
X70766184Y-19549000D01*
X70933816Y-19549000D01*
X71098228Y-19581703D01*
X71098228Y-19581703D01*
G37*
G36*
X249398254Y-16327818D02*
G01*
X249771511Y-16482426D01*
X249771513Y-16482427D01*
X250107436Y-16706884D01*
X250393116Y-16992564D01*
X250617574Y-17328489D01*
X250772182Y-17701746D01*
X250851000Y-18097993D01*
X250851000Y-18502007D01*
X250772182Y-18898254D01*
X250666187Y-19154148D01*
X250617573Y-19271513D01*
X250393116Y-19607436D01*
X250107436Y-19893116D01*
X249771513Y-20117573D01*
X249771512Y-20117574D01*
X249771511Y-20117574D01*
X249398254Y-20272182D01*
X249002007Y-20351000D01*
X248597993Y-20351000D01*
X248201746Y-20272182D01*
X247828489Y-20117574D01*
X247828488Y-20117574D01*
X247828487Y-20117573D01*
X247492564Y-19893116D01*
X247206884Y-19607436D01*
X246982427Y-19271513D01*
X246933813Y-19154148D01*
X246827818Y-18898254D01*
X246749000Y-18502007D01*
X246749000Y-18097993D01*
X246827818Y-17701746D01*
X246982426Y-17328489D01*
X247206884Y-16992564D01*
X247492564Y-16706884D01*
X247828487Y-16482427D01*
X247828489Y-16482426D01*
X248201746Y-16327818D01*
X248597993Y-16249000D01*
X249002007Y-16249000D01*
X249398254Y-16327818D01*
X249398254Y-16327818D01*
G37*
G36*
X239077395Y-18485546D02*
G01*
X239250466Y-18557234D01*
X239250467Y-18557235D01*
X239406227Y-18661310D01*
X239538690Y-18793773D01*
X239538691Y-18793775D01*
X239642766Y-18949534D01*
X239714454Y-19122605D01*
X239751000Y-19306333D01*
X239751000Y-19493667D01*
X239714454Y-19677395D01*
X239642766Y-19850466D01*
X239614268Y-19893116D01*
X239538690Y-20006227D01*
X239406227Y-20138690D01*
X239386648Y-20151772D01*
X239250466Y-20242766D01*
X239077395Y-20314454D01*
X238893667Y-20351000D01*
X238706333Y-20351000D01*
X238522605Y-20314454D01*
X238349534Y-20242766D01*
X238213352Y-20151772D01*
X238193773Y-20138690D01*
X238061310Y-20006227D01*
X237985732Y-19893116D01*
X237957234Y-19850466D01*
X237885546Y-19677395D01*
X237849000Y-19493667D01*
X237849000Y-19306333D01*
X237885546Y-19122605D01*
X237957234Y-18949534D01*
X238061309Y-18793775D01*
X238061310Y-18793773D01*
X238193773Y-18661310D01*
X238349533Y-18557235D01*
X238349534Y-18557234D01*
X238522605Y-18485546D01*
X238706333Y-18449000D01*
X238893667Y-18449000D01*
X239077395Y-18485546D01*
X239077395Y-18485546D01*
G37*
G36*
X169077395Y-18485546D02*
G01*
X169250466Y-18557234D01*
X169250467Y-18557235D01*
X169406227Y-18661310D01*
X169538690Y-18793773D01*
X169538691Y-18793775D01*
X169642766Y-18949534D01*
X169714454Y-19122605D01*
X169751000Y-19306333D01*
X169751000Y-19493667D01*
X169714454Y-19677395D01*
X169642766Y-19850466D01*
X169614268Y-19893116D01*
X169538690Y-20006227D01*
X169406227Y-20138690D01*
X169386648Y-20151772D01*
X169250466Y-20242766D01*
X169077395Y-20314454D01*
X168893667Y-20351000D01*
X168706333Y-20351000D01*
X168522605Y-20314454D01*
X168349534Y-20242766D01*
X168213352Y-20151772D01*
X168193773Y-20138690D01*
X168061310Y-20006227D01*
X167985732Y-19893116D01*
X167957234Y-19850466D01*
X167885546Y-19677395D01*
X167849000Y-19493667D01*
X167849000Y-19306333D01*
X167885546Y-19122605D01*
X167957234Y-18949534D01*
X168061309Y-18793775D01*
X168061310Y-18793773D01*
X168193773Y-18661310D01*
X168349533Y-18557235D01*
X168349534Y-18557234D01*
X168522605Y-18485546D01*
X168706333Y-18449000D01*
X168893667Y-18449000D01*
X169077395Y-18485546D01*
X169077395Y-18485546D01*
G37*
G36*
X57398228Y-18081703D02*
G01*
X57553100Y-18145853D01*
X57692481Y-18238985D01*
X57811015Y-18357519D01*
X57904147Y-18496900D01*
X57968297Y-18651772D01*
X58001000Y-18816184D01*
X58001000Y-18983816D01*
X57968297Y-19148228D01*
X57904147Y-19303100D01*
X57811015Y-19442481D01*
X57692481Y-19561015D01*
X57553100Y-19654147D01*
X57398228Y-19718297D01*
X57233816Y-19751000D01*
X57066184Y-19751000D01*
X56901772Y-19718297D01*
X56746900Y-19654147D01*
X56607519Y-19561015D01*
X56488985Y-19442481D01*
X56395853Y-19303100D01*
X56331703Y-19148228D01*
X56299000Y-18983816D01*
X56299000Y-18816184D01*
X56331703Y-18651772D01*
X56395853Y-18496900D01*
X56488985Y-18357519D01*
X56607519Y-18238985D01*
X56746900Y-18145853D01*
X56901772Y-18081703D01*
X57066184Y-18049000D01*
X57233816Y-18049000D01*
X57398228Y-18081703D01*
X57398228Y-18081703D01*
G37*
G36*
X71098228Y-17581703D02*
G01*
X71253100Y-17645853D01*
X71392481Y-17738985D01*
X71511015Y-17857519D01*
X71604147Y-17996900D01*
X71668297Y-18151772D01*
X71701000Y-18316184D01*
X71701000Y-18483816D01*
X71668297Y-18648228D01*
X71604147Y-18803100D01*
X71511015Y-18942481D01*
X71392481Y-19061015D01*
X71253100Y-19154147D01*
X71098228Y-19218297D01*
X70933816Y-19251000D01*
X70766184Y-19251000D01*
X70601772Y-19218297D01*
X70446900Y-19154147D01*
X70307519Y-19061015D01*
X70188985Y-18942481D01*
X70095853Y-18803100D01*
X70031703Y-18648228D01*
X69999000Y-18483816D01*
X69999000Y-18316184D01*
X70031703Y-18151772D01*
X70095853Y-17996900D01*
X70188985Y-17857519D01*
X70307519Y-17738985D01*
X70446900Y-17645853D01*
X70601772Y-17581703D01*
X70766184Y-17549000D01*
X70933816Y-17549000D01*
X71098228Y-17581703D01*
X71098228Y-17581703D01*
G37*
G36*
X18098254Y-14227818D02*
G01*
X18471511Y-14382426D01*
X18471513Y-14382427D01*
X18807436Y-14606884D01*
X19093116Y-14892564D01*
X19317574Y-15228489D01*
X19472182Y-15601746D01*
X19551000Y-15997993D01*
X19551000Y-16402007D01*
X19472182Y-16798254D01*
X19391696Y-16992564D01*
X19317573Y-17171513D01*
X19093116Y-17507436D01*
X18807436Y-17793116D01*
X18471513Y-18017573D01*
X18471512Y-18017574D01*
X18471511Y-18017574D01*
X18098254Y-18172182D01*
X17702007Y-18251000D01*
X17297993Y-18251000D01*
X16901746Y-18172182D01*
X16528489Y-18017574D01*
X16528488Y-18017574D01*
X16528487Y-18017573D01*
X16192564Y-17793116D01*
X15906884Y-17507436D01*
X15682427Y-17171513D01*
X15608304Y-16992564D01*
X15527818Y-16798254D01*
X15449000Y-16402007D01*
X15449000Y-15997993D01*
X15527818Y-15601746D01*
X15682426Y-15228489D01*
X15906884Y-14892564D01*
X16192564Y-14606884D01*
X16528487Y-14382427D01*
X16528489Y-14382426D01*
X16901746Y-14227818D01*
X17297993Y-14149000D01*
X17702007Y-14149000D01*
X18098254Y-14227818D01*
X18098254Y-14227818D01*
G37*
M02*
