G04 #@! TF.GenerationSoftware,KiCad,Pcbnew,(5.1.2)-2*
G04 #@! TF.CreationDate,2019-07-29T12:19:19-07:00*
G04 #@! TF.ProjectId,Pixel Connector Test Board,50697865-6c20-4436-9f6e-6e6563746f72,rev?*
G04 #@! TF.SameCoordinates,Original*
G04 #@! TF.FileFunction,Legend,Top*
G04 #@! TF.FilePolarity,Positive*
%FSLAX46Y46*%
G04 Gerber Fmt 4.6, Leading zero omitted, Abs format (unit mm)*
G04 Created by KiCad (PCBNEW (5.1.2)-2) date 2019-07-29 12:19:19*
%MOMM*%
%LPD*%
G04 APERTURE LIST*
%ADD10C,0.120000*%
%ADD11C,0.150000*%
%ADD12C,0.300000*%
%ADD13C,0.050000*%
G04 APERTURE END LIST*
D10*
X160800000Y-58000000D02*
X160800000Y-13600000D01*
D11*
X207609523Y-56552380D02*
X207609523Y-55552380D01*
X207847619Y-55552380D01*
X207990476Y-55600000D01*
X208085714Y-55695238D01*
X208133333Y-55790476D01*
X208180952Y-55980952D01*
X208180952Y-56123809D01*
X208133333Y-56314285D01*
X208085714Y-56409523D01*
X207990476Y-56504761D01*
X207847619Y-56552380D01*
X207609523Y-56552380D01*
X208990476Y-56504761D02*
X208895238Y-56552380D01*
X208704761Y-56552380D01*
X208609523Y-56504761D01*
X208561904Y-56409523D01*
X208561904Y-56028571D01*
X208609523Y-55933333D01*
X208704761Y-55885714D01*
X208895238Y-55885714D01*
X208990476Y-55933333D01*
X209038095Y-56028571D01*
X209038095Y-56123809D01*
X208561904Y-56219047D01*
X209419047Y-56504761D02*
X209514285Y-56552380D01*
X209704761Y-56552380D01*
X209800000Y-56504761D01*
X209847619Y-56409523D01*
X209847619Y-56361904D01*
X209800000Y-56266666D01*
X209704761Y-56219047D01*
X209561904Y-56219047D01*
X209466666Y-56171428D01*
X209419047Y-56076190D01*
X209419047Y-56028571D01*
X209466666Y-55933333D01*
X209561904Y-55885714D01*
X209704761Y-55885714D01*
X209800000Y-55933333D01*
X210276190Y-56552380D02*
X210276190Y-55885714D01*
X210276190Y-55552380D02*
X210228571Y-55600000D01*
X210276190Y-55647619D01*
X210323809Y-55600000D01*
X210276190Y-55552380D01*
X210276190Y-55647619D01*
X211180952Y-55885714D02*
X211180952Y-56695238D01*
X211133333Y-56790476D01*
X211085714Y-56838095D01*
X210990476Y-56885714D01*
X210847619Y-56885714D01*
X210752380Y-56838095D01*
X211180952Y-56504761D02*
X211085714Y-56552380D01*
X210895238Y-56552380D01*
X210800000Y-56504761D01*
X210752380Y-56457142D01*
X210704761Y-56361904D01*
X210704761Y-56076190D01*
X210752380Y-55980952D01*
X210800000Y-55933333D01*
X210895238Y-55885714D01*
X211085714Y-55885714D01*
X211180952Y-55933333D01*
X211657142Y-55885714D02*
X211657142Y-56552380D01*
X211657142Y-55980952D02*
X211704761Y-55933333D01*
X211800000Y-55885714D01*
X211942857Y-55885714D01*
X212038095Y-55933333D01*
X212085714Y-56028571D01*
X212085714Y-56552380D01*
X212942857Y-56504761D02*
X212847619Y-56552380D01*
X212657142Y-56552380D01*
X212561904Y-56504761D01*
X212514285Y-56409523D01*
X212514285Y-56028571D01*
X212561904Y-55933333D01*
X212657142Y-55885714D01*
X212847619Y-55885714D01*
X212942857Y-55933333D01*
X212990476Y-56028571D01*
X212990476Y-56123809D01*
X212514285Y-56219047D01*
X213847619Y-56552380D02*
X213847619Y-55552380D01*
X213847619Y-56504761D02*
X213752380Y-56552380D01*
X213561904Y-56552380D01*
X213466666Y-56504761D01*
X213419047Y-56457142D01*
X213371428Y-56361904D01*
X213371428Y-56076190D01*
X213419047Y-55980952D01*
X213466666Y-55933333D01*
X213561904Y-55885714D01*
X213752380Y-55885714D01*
X213847619Y-55933333D01*
X215085714Y-56552380D02*
X215085714Y-55552380D01*
X215085714Y-55933333D02*
X215180952Y-55885714D01*
X215371428Y-55885714D01*
X215466666Y-55933333D01*
X215514285Y-55980952D01*
X215561904Y-56076190D01*
X215561904Y-56361904D01*
X215514285Y-56457142D01*
X215466666Y-56504761D01*
X215371428Y-56552380D01*
X215180952Y-56552380D01*
X215085714Y-56504761D01*
X215895238Y-55885714D02*
X216133333Y-56552380D01*
X216371428Y-55885714D02*
X216133333Y-56552380D01*
X216038095Y-56790476D01*
X215990476Y-56838095D01*
X215895238Y-56885714D01*
X217514285Y-56552380D02*
X217514285Y-55552380D01*
X218085714Y-56552380D01*
X218085714Y-55552380D01*
X218704761Y-56552380D02*
X218609523Y-56504761D01*
X218561904Y-56457142D01*
X218514285Y-56361904D01*
X218514285Y-56076190D01*
X218561904Y-55980952D01*
X218609523Y-55933333D01*
X218704761Y-55885714D01*
X218847619Y-55885714D01*
X218942857Y-55933333D01*
X218990476Y-55980952D01*
X219038095Y-56076190D01*
X219038095Y-56361904D01*
X218990476Y-56457142D01*
X218942857Y-56504761D01*
X218847619Y-56552380D01*
X218704761Y-56552380D01*
X219895238Y-56552380D02*
X219895238Y-56028571D01*
X219847619Y-55933333D01*
X219752380Y-55885714D01*
X219561904Y-55885714D01*
X219466666Y-55933333D01*
X219895238Y-56504761D02*
X219800000Y-56552380D01*
X219561904Y-56552380D01*
X219466666Y-56504761D01*
X219419047Y-56409523D01*
X219419047Y-56314285D01*
X219466666Y-56219047D01*
X219561904Y-56171428D01*
X219800000Y-56171428D01*
X219895238Y-56123809D01*
X220371428Y-56552380D02*
X220371428Y-55552380D01*
X220800000Y-56552380D02*
X220800000Y-56028571D01*
X220752380Y-55933333D01*
X220657142Y-55885714D01*
X220514285Y-55885714D01*
X220419047Y-55933333D01*
X220371428Y-55980952D01*
X222038095Y-56552380D02*
X222038095Y-55552380D01*
X222419047Y-55552380D01*
X222514285Y-55600000D01*
X222561904Y-55647619D01*
X222609523Y-55742857D01*
X222609523Y-55885714D01*
X222561904Y-55980952D01*
X222514285Y-56028571D01*
X222419047Y-56076190D01*
X222038095Y-56076190D01*
X223419047Y-56504761D02*
X223323809Y-56552380D01*
X223133333Y-56552380D01*
X223038095Y-56504761D01*
X222990476Y-56409523D01*
X222990476Y-56028571D01*
X223038095Y-55933333D01*
X223133333Y-55885714D01*
X223323809Y-55885714D01*
X223419047Y-55933333D01*
X223466666Y-56028571D01*
X223466666Y-56123809D01*
X222990476Y-56219047D01*
X224323809Y-56552380D02*
X224323809Y-56028571D01*
X224276190Y-55933333D01*
X224180952Y-55885714D01*
X223990476Y-55885714D01*
X223895238Y-55933333D01*
X224323809Y-56504761D02*
X224228571Y-56552380D01*
X223990476Y-56552380D01*
X223895238Y-56504761D01*
X223847619Y-56409523D01*
X223847619Y-56314285D01*
X223895238Y-56219047D01*
X223990476Y-56171428D01*
X224228571Y-56171428D01*
X224323809Y-56123809D01*
X224800000Y-56552380D02*
X224800000Y-55552380D01*
X224895238Y-56171428D02*
X225180952Y-56552380D01*
X225180952Y-55885714D02*
X224800000Y-56266666D01*
X225990476Y-56504761D02*
X225895238Y-56552380D01*
X225704761Y-56552380D01*
X225609523Y-56504761D01*
X225561904Y-56409523D01*
X225561904Y-56028571D01*
X225609523Y-55933333D01*
X225704761Y-55885714D01*
X225895238Y-55885714D01*
X225990476Y-55933333D01*
X226038095Y-56028571D01*
X226038095Y-56123809D01*
X225561904Y-56219047D01*
X207514285Y-53752380D02*
X208180952Y-53752380D01*
X207752380Y-54752380D01*
X209276190Y-53704761D02*
X208419047Y-54990476D01*
X209561904Y-53847619D02*
X209609523Y-53800000D01*
X209704761Y-53752380D01*
X209942857Y-53752380D01*
X210038095Y-53800000D01*
X210085714Y-53847619D01*
X210133333Y-53942857D01*
X210133333Y-54038095D01*
X210085714Y-54180952D01*
X209514285Y-54752380D01*
X210133333Y-54752380D01*
X211038095Y-53752380D02*
X210561904Y-53752380D01*
X210514285Y-54228571D01*
X210561904Y-54180952D01*
X210657142Y-54133333D01*
X210895238Y-54133333D01*
X210990476Y-54180952D01*
X211038095Y-54228571D01*
X211085714Y-54323809D01*
X211085714Y-54561904D01*
X211038095Y-54657142D01*
X210990476Y-54704761D01*
X210895238Y-54752380D01*
X210657142Y-54752380D01*
X210561904Y-54704761D01*
X210514285Y-54657142D01*
X212228571Y-53704761D02*
X211371428Y-54990476D01*
X213085714Y-54752380D02*
X212514285Y-54752380D01*
X212800000Y-54752380D02*
X212800000Y-53752380D01*
X212704761Y-53895238D01*
X212609523Y-53990476D01*
X212514285Y-54038095D01*
X213561904Y-54752380D02*
X213752380Y-54752380D01*
X213847619Y-54704761D01*
X213895238Y-54657142D01*
X213990476Y-54514285D01*
X214038095Y-54323809D01*
X214038095Y-53942857D01*
X213990476Y-53847619D01*
X213942857Y-53800000D01*
X213847619Y-53752380D01*
X213657142Y-53752380D01*
X213561904Y-53800000D01*
X213514285Y-53847619D01*
X213466666Y-53942857D01*
X213466666Y-54180952D01*
X213514285Y-54276190D01*
X213561904Y-54323809D01*
X213657142Y-54371428D01*
X213847619Y-54371428D01*
X213942857Y-54323809D01*
X213990476Y-54276190D01*
X214038095Y-54180952D01*
X207628571Y-52952380D02*
X207628571Y-51952380D01*
X207961904Y-51952380D02*
X208533333Y-51952380D01*
X208247619Y-52952380D02*
X208247619Y-51952380D01*
X208866666Y-52952380D02*
X208866666Y-51952380D01*
X208961904Y-52571428D02*
X209247619Y-52952380D01*
X209247619Y-52285714D02*
X208866666Y-52666666D01*
X210438095Y-52952380D02*
X210438095Y-51952380D01*
X210819047Y-51952380D01*
X210914285Y-52000000D01*
X210961904Y-52047619D01*
X211009523Y-52142857D01*
X211009523Y-52285714D01*
X210961904Y-52380952D01*
X210914285Y-52428571D01*
X210819047Y-52476190D01*
X210438095Y-52476190D01*
X211438095Y-52952380D02*
X211438095Y-52285714D01*
X211438095Y-51952380D02*
X211390476Y-52000000D01*
X211438095Y-52047619D01*
X211485714Y-52000000D01*
X211438095Y-51952380D01*
X211438095Y-52047619D01*
X211819047Y-52952380D02*
X212342857Y-52285714D01*
X211819047Y-52285714D02*
X212342857Y-52952380D01*
X213104761Y-52904761D02*
X213009523Y-52952380D01*
X212819047Y-52952380D01*
X212723809Y-52904761D01*
X212676190Y-52809523D01*
X212676190Y-52428571D01*
X212723809Y-52333333D01*
X212819047Y-52285714D01*
X213009523Y-52285714D01*
X213104761Y-52333333D01*
X213152380Y-52428571D01*
X213152380Y-52523809D01*
X212676190Y-52619047D01*
X213723809Y-52952380D02*
X213628571Y-52904761D01*
X213580952Y-52809523D01*
X213580952Y-51952380D01*
X215438095Y-52857142D02*
X215390476Y-52904761D01*
X215247619Y-52952380D01*
X215152380Y-52952380D01*
X215009523Y-52904761D01*
X214914285Y-52809523D01*
X214866666Y-52714285D01*
X214819047Y-52523809D01*
X214819047Y-52380952D01*
X214866666Y-52190476D01*
X214914285Y-52095238D01*
X215009523Y-52000000D01*
X215152380Y-51952380D01*
X215247619Y-51952380D01*
X215390476Y-52000000D01*
X215438095Y-52047619D01*
X216009523Y-52952380D02*
X215914285Y-52904761D01*
X215866666Y-52857142D01*
X215819047Y-52761904D01*
X215819047Y-52476190D01*
X215866666Y-52380952D01*
X215914285Y-52333333D01*
X216009523Y-52285714D01*
X216152380Y-52285714D01*
X216247619Y-52333333D01*
X216295238Y-52380952D01*
X216342857Y-52476190D01*
X216342857Y-52761904D01*
X216295238Y-52857142D01*
X216247619Y-52904761D01*
X216152380Y-52952380D01*
X216009523Y-52952380D01*
X216771428Y-52285714D02*
X216771428Y-52952380D01*
X216771428Y-52380952D02*
X216819047Y-52333333D01*
X216914285Y-52285714D01*
X217057142Y-52285714D01*
X217152380Y-52333333D01*
X217200000Y-52428571D01*
X217200000Y-52952380D01*
X217676190Y-52285714D02*
X217676190Y-52952380D01*
X217676190Y-52380952D02*
X217723809Y-52333333D01*
X217819047Y-52285714D01*
X217961904Y-52285714D01*
X218057142Y-52333333D01*
X218104761Y-52428571D01*
X218104761Y-52952380D01*
X218961904Y-52904761D02*
X218866666Y-52952380D01*
X218676190Y-52952380D01*
X218580952Y-52904761D01*
X218533333Y-52809523D01*
X218533333Y-52428571D01*
X218580952Y-52333333D01*
X218676190Y-52285714D01*
X218866666Y-52285714D01*
X218961904Y-52333333D01*
X219009523Y-52428571D01*
X219009523Y-52523809D01*
X218533333Y-52619047D01*
X219866666Y-52904761D02*
X219771428Y-52952380D01*
X219580952Y-52952380D01*
X219485714Y-52904761D01*
X219438095Y-52857142D01*
X219390476Y-52761904D01*
X219390476Y-52476190D01*
X219438095Y-52380952D01*
X219485714Y-52333333D01*
X219580952Y-52285714D01*
X219771428Y-52285714D01*
X219866666Y-52333333D01*
X220152380Y-52285714D02*
X220533333Y-52285714D01*
X220295238Y-51952380D02*
X220295238Y-52809523D01*
X220342857Y-52904761D01*
X220438095Y-52952380D01*
X220533333Y-52952380D01*
X221009523Y-52952380D02*
X220914285Y-52904761D01*
X220866666Y-52857142D01*
X220819047Y-52761904D01*
X220819047Y-52476190D01*
X220866666Y-52380952D01*
X220914285Y-52333333D01*
X221009523Y-52285714D01*
X221152380Y-52285714D01*
X221247619Y-52333333D01*
X221295238Y-52380952D01*
X221342857Y-52476190D01*
X221342857Y-52761904D01*
X221295238Y-52857142D01*
X221247619Y-52904761D01*
X221152380Y-52952380D01*
X221009523Y-52952380D01*
X221771428Y-52952380D02*
X221771428Y-52285714D01*
X221771428Y-52476190D02*
X221819047Y-52380952D01*
X221866666Y-52333333D01*
X221961904Y-52285714D01*
X222057142Y-52285714D01*
X223009523Y-51952380D02*
X223580952Y-51952380D01*
X223295238Y-52952380D02*
X223295238Y-51952380D01*
X224295238Y-52904761D02*
X224200000Y-52952380D01*
X224009523Y-52952380D01*
X223914285Y-52904761D01*
X223866666Y-52809523D01*
X223866666Y-52428571D01*
X223914285Y-52333333D01*
X224009523Y-52285714D01*
X224200000Y-52285714D01*
X224295238Y-52333333D01*
X224342857Y-52428571D01*
X224342857Y-52523809D01*
X223866666Y-52619047D01*
X224723809Y-52904761D02*
X224819047Y-52952380D01*
X225009523Y-52952380D01*
X225104761Y-52904761D01*
X225152380Y-52809523D01*
X225152380Y-52761904D01*
X225104761Y-52666666D01*
X225009523Y-52619047D01*
X224866666Y-52619047D01*
X224771428Y-52571428D01*
X224723809Y-52476190D01*
X224723809Y-52428571D01*
X224771428Y-52333333D01*
X224866666Y-52285714D01*
X225009523Y-52285714D01*
X225104761Y-52333333D01*
X225438095Y-52285714D02*
X225819047Y-52285714D01*
X225580952Y-51952380D02*
X225580952Y-52809523D01*
X225628571Y-52904761D01*
X225723809Y-52952380D01*
X225819047Y-52952380D01*
X227247619Y-52428571D02*
X227390476Y-52476190D01*
X227438095Y-52523809D01*
X227485714Y-52619047D01*
X227485714Y-52761904D01*
X227438095Y-52857142D01*
X227390476Y-52904761D01*
X227295238Y-52952380D01*
X226914285Y-52952380D01*
X226914285Y-51952380D01*
X227247619Y-51952380D01*
X227342857Y-52000000D01*
X227390476Y-52047619D01*
X227438095Y-52142857D01*
X227438095Y-52238095D01*
X227390476Y-52333333D01*
X227342857Y-52380952D01*
X227247619Y-52428571D01*
X226914285Y-52428571D01*
X228057142Y-52952380D02*
X227961904Y-52904761D01*
X227914285Y-52857142D01*
X227866666Y-52761904D01*
X227866666Y-52476190D01*
X227914285Y-52380952D01*
X227961904Y-52333333D01*
X228057142Y-52285714D01*
X228199999Y-52285714D01*
X228295238Y-52333333D01*
X228342857Y-52380952D01*
X228390476Y-52476190D01*
X228390476Y-52761904D01*
X228342857Y-52857142D01*
X228295238Y-52904761D01*
X228199999Y-52952380D01*
X228057142Y-52952380D01*
X229247619Y-52952380D02*
X229247619Y-52428571D01*
X229199999Y-52333333D01*
X229104761Y-52285714D01*
X228914285Y-52285714D01*
X228819047Y-52333333D01*
X229247619Y-52904761D02*
X229152380Y-52952380D01*
X228914285Y-52952380D01*
X228819047Y-52904761D01*
X228771428Y-52809523D01*
X228771428Y-52714285D01*
X228819047Y-52619047D01*
X228914285Y-52571428D01*
X229152380Y-52571428D01*
X229247619Y-52523809D01*
X229723809Y-52952380D02*
X229723809Y-52285714D01*
X229723809Y-52476190D02*
X229771428Y-52380952D01*
X229819047Y-52333333D01*
X229914285Y-52285714D01*
X230009523Y-52285714D01*
X230771428Y-52952380D02*
X230771428Y-51952380D01*
X230771428Y-52904761D02*
X230676190Y-52952380D01*
X230485714Y-52952380D01*
X230390476Y-52904761D01*
X230342857Y-52857142D01*
X230295238Y-52761904D01*
X230295238Y-52476190D01*
X230342857Y-52380952D01*
X230390476Y-52333333D01*
X230485714Y-52285714D01*
X230676190Y-52285714D01*
X230771428Y-52333333D01*
X189771428Y-54779761D02*
X189914285Y-54827380D01*
X190152380Y-54827380D01*
X190247619Y-54779761D01*
X190295238Y-54732142D01*
X190342857Y-54636904D01*
X190342857Y-54541666D01*
X190295238Y-54446428D01*
X190247619Y-54398809D01*
X190152380Y-54351190D01*
X189961904Y-54303571D01*
X189866666Y-54255952D01*
X189819047Y-54208333D01*
X189771428Y-54113095D01*
X189771428Y-54017857D01*
X189819047Y-53922619D01*
X189866666Y-53875000D01*
X189961904Y-53827380D01*
X190200000Y-53827380D01*
X190342857Y-53875000D01*
X191200000Y-54827380D02*
X191200000Y-54303571D01*
X191152380Y-54208333D01*
X191057142Y-54160714D01*
X190866666Y-54160714D01*
X190771428Y-54208333D01*
X191200000Y-54779761D02*
X191104761Y-54827380D01*
X190866666Y-54827380D01*
X190771428Y-54779761D01*
X190723809Y-54684523D01*
X190723809Y-54589285D01*
X190771428Y-54494047D01*
X190866666Y-54446428D01*
X191104761Y-54446428D01*
X191200000Y-54398809D01*
X191676190Y-54160714D02*
X191676190Y-54827380D01*
X191676190Y-54255952D02*
X191723809Y-54208333D01*
X191819047Y-54160714D01*
X191961904Y-54160714D01*
X192057142Y-54208333D01*
X192104761Y-54303571D01*
X192104761Y-54827380D01*
X192438095Y-54160714D02*
X192819047Y-54160714D01*
X192580952Y-53827380D02*
X192580952Y-54684523D01*
X192628571Y-54779761D01*
X192723809Y-54827380D01*
X192819047Y-54827380D01*
X193580952Y-54827380D02*
X193580952Y-54303571D01*
X193533333Y-54208333D01*
X193438095Y-54160714D01*
X193247619Y-54160714D01*
X193152380Y-54208333D01*
X193580952Y-54779761D02*
X193485714Y-54827380D01*
X193247619Y-54827380D01*
X193152380Y-54779761D01*
X193104761Y-54684523D01*
X193104761Y-54589285D01*
X193152380Y-54494047D01*
X193247619Y-54446428D01*
X193485714Y-54446428D01*
X193580952Y-54398809D01*
X195390476Y-54732142D02*
X195342857Y-54779761D01*
X195200000Y-54827380D01*
X195104761Y-54827380D01*
X194961904Y-54779761D01*
X194866666Y-54684523D01*
X194819047Y-54589285D01*
X194771428Y-54398809D01*
X194771428Y-54255952D01*
X194819047Y-54065476D01*
X194866666Y-53970238D01*
X194961904Y-53875000D01*
X195104761Y-53827380D01*
X195200000Y-53827380D01*
X195342857Y-53875000D01*
X195390476Y-53922619D01*
X195819047Y-54827380D02*
X195819047Y-54160714D01*
X195819047Y-54351190D02*
X195866666Y-54255952D01*
X195914285Y-54208333D01*
X196009523Y-54160714D01*
X196104761Y-54160714D01*
X196866666Y-54160714D02*
X196866666Y-54827380D01*
X196438095Y-54160714D02*
X196438095Y-54684523D01*
X196485714Y-54779761D01*
X196580952Y-54827380D01*
X196723809Y-54827380D01*
X196819047Y-54779761D01*
X196866666Y-54732142D01*
X197247619Y-54160714D02*
X197771428Y-54160714D01*
X197247619Y-54827380D01*
X197771428Y-54827380D01*
X198914285Y-54827380D02*
X198914285Y-53827380D01*
X199390476Y-54160714D02*
X199390476Y-54827380D01*
X199390476Y-54255952D02*
X199438095Y-54208333D01*
X199533333Y-54160714D01*
X199676190Y-54160714D01*
X199771428Y-54208333D01*
X199819047Y-54303571D01*
X199819047Y-54827380D01*
X200247619Y-54779761D02*
X200342857Y-54827380D01*
X200533333Y-54827380D01*
X200628571Y-54779761D01*
X200676190Y-54684523D01*
X200676190Y-54636904D01*
X200628571Y-54541666D01*
X200533333Y-54494047D01*
X200390476Y-54494047D01*
X200295238Y-54446428D01*
X200247619Y-54351190D01*
X200247619Y-54303571D01*
X200295238Y-54208333D01*
X200390476Y-54160714D01*
X200533333Y-54160714D01*
X200628571Y-54208333D01*
X200961904Y-54160714D02*
X201342857Y-54160714D01*
X201104761Y-53827380D02*
X201104761Y-54684523D01*
X201152380Y-54779761D01*
X201247619Y-54827380D01*
X201342857Y-54827380D01*
X201676190Y-54827380D02*
X201676190Y-54160714D01*
X201676190Y-53827380D02*
X201628571Y-53875000D01*
X201676190Y-53922619D01*
X201723809Y-53875000D01*
X201676190Y-53827380D01*
X201676190Y-53922619D01*
X202009523Y-54160714D02*
X202390476Y-54160714D01*
X202152380Y-53827380D02*
X202152380Y-54684523D01*
X202200000Y-54779761D01*
X202295238Y-54827380D01*
X202390476Y-54827380D01*
X203152380Y-54160714D02*
X203152380Y-54827380D01*
X202723809Y-54160714D02*
X202723809Y-54684523D01*
X202771428Y-54779761D01*
X202866666Y-54827380D01*
X203009523Y-54827380D01*
X203104761Y-54779761D01*
X203152380Y-54732142D01*
X203485714Y-54160714D02*
X203866666Y-54160714D01*
X203628571Y-53827380D02*
X203628571Y-54684523D01*
X203676190Y-54779761D01*
X203771428Y-54827380D01*
X203866666Y-54827380D01*
X204580952Y-54779761D02*
X204485714Y-54827380D01*
X204295238Y-54827380D01*
X204200000Y-54779761D01*
X204152380Y-54684523D01*
X204152380Y-54303571D01*
X204200000Y-54208333D01*
X204295238Y-54160714D01*
X204485714Y-54160714D01*
X204580952Y-54208333D01*
X204628571Y-54303571D01*
X204628571Y-54398809D01*
X204152380Y-54494047D01*
X190104761Y-55953571D02*
X189771428Y-55953571D01*
X189771428Y-56477380D02*
X189771428Y-55477380D01*
X190247619Y-55477380D01*
X190771428Y-56477380D02*
X190676190Y-56429761D01*
X190628571Y-56382142D01*
X190580952Y-56286904D01*
X190580952Y-56001190D01*
X190628571Y-55905952D01*
X190676190Y-55858333D01*
X190771428Y-55810714D01*
X190914285Y-55810714D01*
X191009523Y-55858333D01*
X191057142Y-55905952D01*
X191104761Y-56001190D01*
X191104761Y-56286904D01*
X191057142Y-56382142D01*
X191009523Y-56429761D01*
X190914285Y-56477380D01*
X190771428Y-56477380D01*
X191533333Y-56477380D02*
X191533333Y-55810714D01*
X191533333Y-56001190D02*
X191580952Y-55905952D01*
X191628571Y-55858333D01*
X191723809Y-55810714D01*
X191819047Y-55810714D01*
X192914285Y-56477380D02*
X192914285Y-55477380D01*
X193295238Y-55477380D01*
X193390476Y-55525000D01*
X193438095Y-55572619D01*
X193485714Y-55667857D01*
X193485714Y-55810714D01*
X193438095Y-55905952D01*
X193390476Y-55953571D01*
X193295238Y-56001190D01*
X192914285Y-56001190D01*
X194342857Y-56477380D02*
X194342857Y-55953571D01*
X194295238Y-55858333D01*
X194200000Y-55810714D01*
X194009523Y-55810714D01*
X193914285Y-55858333D01*
X194342857Y-56429761D02*
X194247619Y-56477380D01*
X194009523Y-56477380D01*
X193914285Y-56429761D01*
X193866666Y-56334523D01*
X193866666Y-56239285D01*
X193914285Y-56144047D01*
X194009523Y-56096428D01*
X194247619Y-56096428D01*
X194342857Y-56048809D01*
X194819047Y-56477380D02*
X194819047Y-55810714D01*
X194819047Y-56001190D02*
X194866666Y-55905952D01*
X194914285Y-55858333D01*
X195009523Y-55810714D01*
X195104761Y-55810714D01*
X195295238Y-55810714D02*
X195676190Y-55810714D01*
X195438095Y-55477380D02*
X195438095Y-56334523D01*
X195485714Y-56429761D01*
X195580952Y-56477380D01*
X195676190Y-56477380D01*
X196009523Y-56477380D02*
X196009523Y-55810714D01*
X196009523Y-55477380D02*
X195961904Y-55525000D01*
X196009523Y-55572619D01*
X196057142Y-55525000D01*
X196009523Y-55477380D01*
X196009523Y-55572619D01*
X196914285Y-56429761D02*
X196819047Y-56477380D01*
X196628571Y-56477380D01*
X196533333Y-56429761D01*
X196485714Y-56382142D01*
X196438095Y-56286904D01*
X196438095Y-56001190D01*
X196485714Y-55905952D01*
X196533333Y-55858333D01*
X196628571Y-55810714D01*
X196819047Y-55810714D01*
X196914285Y-55858333D01*
X197485714Y-56477380D02*
X197390476Y-56429761D01*
X197342857Y-56334523D01*
X197342857Y-55477380D01*
X198247619Y-56429761D02*
X198152380Y-56477380D01*
X197961904Y-56477380D01*
X197866666Y-56429761D01*
X197819047Y-56334523D01*
X197819047Y-55953571D01*
X197866666Y-55858333D01*
X197961904Y-55810714D01*
X198152380Y-55810714D01*
X198247619Y-55858333D01*
X198295238Y-55953571D01*
X198295238Y-56048809D01*
X197819047Y-56144047D01*
X199485714Y-56477380D02*
X199485714Y-55477380D01*
X199866666Y-55477380D01*
X199961904Y-55525000D01*
X200009523Y-55572619D01*
X200057142Y-55667857D01*
X200057142Y-55810714D01*
X200009523Y-55905952D01*
X199961904Y-55953571D01*
X199866666Y-56001190D01*
X199485714Y-56001190D01*
X200485714Y-56477380D02*
X200485714Y-55477380D01*
X200914285Y-56477380D02*
X200914285Y-55953571D01*
X200866666Y-55858333D01*
X200771428Y-55810714D01*
X200628571Y-55810714D01*
X200533333Y-55858333D01*
X200485714Y-55905952D01*
X201295238Y-55810714D02*
X201533333Y-56477380D01*
X201771428Y-55810714D02*
X201533333Y-56477380D01*
X201438095Y-56715476D01*
X201390476Y-56763095D01*
X201295238Y-56810714D01*
X202104761Y-56429761D02*
X202200000Y-56477380D01*
X202390476Y-56477380D01*
X202485714Y-56429761D01*
X202533333Y-56334523D01*
X202533333Y-56286904D01*
X202485714Y-56191666D01*
X202390476Y-56144047D01*
X202247619Y-56144047D01*
X202152380Y-56096428D01*
X202104761Y-56001190D01*
X202104761Y-55953571D01*
X202152380Y-55858333D01*
X202247619Y-55810714D01*
X202390476Y-55810714D01*
X202485714Y-55858333D01*
X202961904Y-56477380D02*
X202961904Y-55810714D01*
X202961904Y-55477380D02*
X202914285Y-55525000D01*
X202961904Y-55572619D01*
X203009523Y-55525000D01*
X202961904Y-55477380D01*
X202961904Y-55572619D01*
X203866666Y-56429761D02*
X203771428Y-56477380D01*
X203580952Y-56477380D01*
X203485714Y-56429761D01*
X203438095Y-56382142D01*
X203390476Y-56286904D01*
X203390476Y-56001190D01*
X203438095Y-55905952D01*
X203485714Y-55858333D01*
X203580952Y-55810714D01*
X203771428Y-55810714D01*
X203866666Y-55858333D01*
X204247619Y-56429761D02*
X204342857Y-56477380D01*
X204533333Y-56477380D01*
X204628571Y-56429761D01*
X204676190Y-56334523D01*
X204676190Y-56286904D01*
X204628571Y-56191666D01*
X204533333Y-56144047D01*
X204390476Y-56144047D01*
X204295238Y-56096428D01*
X204247619Y-56001190D01*
X204247619Y-55953571D01*
X204295238Y-55858333D01*
X204390476Y-55810714D01*
X204533333Y-55810714D01*
X204628571Y-55858333D01*
D12*
X193252380Y-52909523D02*
X193538095Y-53004761D01*
X194014285Y-53004761D01*
X194204761Y-52909523D01*
X194300000Y-52814285D01*
X194395238Y-52623809D01*
X194395238Y-52433333D01*
X194300000Y-52242857D01*
X194204761Y-52147619D01*
X194014285Y-52052380D01*
X193633333Y-51957142D01*
X193442857Y-51861904D01*
X193347619Y-51766666D01*
X193252380Y-51576190D01*
X193252380Y-51385714D01*
X193347619Y-51195238D01*
X193442857Y-51100000D01*
X193633333Y-51004761D01*
X194109523Y-51004761D01*
X194395238Y-51100000D01*
X196395238Y-52814285D02*
X196300000Y-52909523D01*
X196014285Y-53004761D01*
X195823809Y-53004761D01*
X195538095Y-52909523D01*
X195347619Y-52719047D01*
X195252380Y-52528571D01*
X195157142Y-52147619D01*
X195157142Y-51861904D01*
X195252380Y-51480952D01*
X195347619Y-51290476D01*
X195538095Y-51100000D01*
X195823809Y-51004761D01*
X196014285Y-51004761D01*
X196300000Y-51100000D01*
X196395238Y-51195238D01*
X197252380Y-53004761D02*
X197252380Y-51004761D01*
X198204761Y-53004761D02*
X198204761Y-51004761D01*
X198966666Y-51004761D01*
X199157142Y-51100000D01*
X199252380Y-51195238D01*
X199347619Y-51385714D01*
X199347619Y-51671428D01*
X199252380Y-51861904D01*
X199157142Y-51957142D01*
X198966666Y-52052380D01*
X198204761Y-52052380D01*
X200204761Y-53004761D02*
X200204761Y-51004761D01*
X200966666Y-51004761D01*
X201157142Y-51100000D01*
X201252380Y-51195238D01*
X201347619Y-51385714D01*
X201347619Y-51671428D01*
X201252380Y-51861904D01*
X201157142Y-51957142D01*
X200966666Y-52052380D01*
X200204761Y-52052380D01*
D11*
X237004761Y-47480952D02*
X236909523Y-47433333D01*
X236861904Y-47385714D01*
X236814285Y-47290476D01*
X236814285Y-47242857D01*
X236861904Y-47147619D01*
X236909523Y-47100000D01*
X237004761Y-47052380D01*
X237195238Y-47052380D01*
X237290476Y-47100000D01*
X237338095Y-47147619D01*
X237385714Y-47242857D01*
X237385714Y-47290476D01*
X237338095Y-47385714D01*
X237290476Y-47433333D01*
X237195238Y-47480952D01*
X237004761Y-47480952D01*
X236909523Y-47528571D01*
X236861904Y-47576190D01*
X236814285Y-47671428D01*
X236814285Y-47861904D01*
X236861904Y-47957142D01*
X236909523Y-48004761D01*
X237004761Y-48052380D01*
X237195238Y-48052380D01*
X237290476Y-48004761D01*
X237338095Y-47957142D01*
X237385714Y-47861904D01*
X237385714Y-47671428D01*
X237338095Y-47576190D01*
X237290476Y-47528571D01*
X237195238Y-47480952D01*
X231909523Y-42952380D02*
X232100000Y-42952380D01*
X232195238Y-42904761D01*
X232242857Y-42857142D01*
X232338095Y-42714285D01*
X232385714Y-42523809D01*
X232385714Y-42142857D01*
X232338095Y-42047619D01*
X232290476Y-42000000D01*
X232195238Y-41952380D01*
X232004761Y-41952380D01*
X231909523Y-42000000D01*
X231861904Y-42047619D01*
X231814285Y-42142857D01*
X231814285Y-42380952D01*
X231861904Y-42476190D01*
X231909523Y-42523809D01*
X232004761Y-42571428D01*
X232195238Y-42571428D01*
X232290476Y-42523809D01*
X232338095Y-42476190D01*
X232385714Y-42380952D01*
X236409523Y-38152380D02*
X235838095Y-38152380D01*
X236123809Y-38152380D02*
X236123809Y-37152380D01*
X236028571Y-37295238D01*
X235933333Y-37390476D01*
X235838095Y-37438095D01*
X237028571Y-37152380D02*
X237123809Y-37152380D01*
X237219047Y-37200000D01*
X237266666Y-37247619D01*
X237314285Y-37342857D01*
X237361904Y-37533333D01*
X237361904Y-37771428D01*
X237314285Y-37961904D01*
X237266666Y-38057142D01*
X237219047Y-38104761D01*
X237123809Y-38152380D01*
X237028571Y-38152380D01*
X236933333Y-38104761D01*
X236885714Y-38057142D01*
X236838095Y-37961904D01*
X236790476Y-37771428D01*
X236790476Y-37533333D01*
X236838095Y-37342857D01*
X236885714Y-37247619D01*
X236933333Y-37200000D01*
X237028571Y-37152380D01*
X231709523Y-32852380D02*
X231138095Y-32852380D01*
X231423809Y-32852380D02*
X231423809Y-31852380D01*
X231328571Y-31995238D01*
X231233333Y-32090476D01*
X231138095Y-32138095D01*
X232661904Y-32852380D02*
X232090476Y-32852380D01*
X232376190Y-32852380D02*
X232376190Y-31852380D01*
X232280952Y-31995238D01*
X232185714Y-32090476D01*
X232090476Y-32138095D01*
X236609523Y-27952380D02*
X236038095Y-27952380D01*
X236323809Y-27952380D02*
X236323809Y-26952380D01*
X236228571Y-27095238D01*
X236133333Y-27190476D01*
X236038095Y-27238095D01*
X236990476Y-27047619D02*
X237038095Y-27000000D01*
X237133333Y-26952380D01*
X237371428Y-26952380D01*
X237466666Y-27000000D01*
X237514285Y-27047619D01*
X237561904Y-27142857D01*
X237561904Y-27238095D01*
X237514285Y-27380952D01*
X236942857Y-27952380D01*
X237561904Y-27952380D01*
X231809523Y-22952380D02*
X231238095Y-22952380D01*
X231523809Y-22952380D02*
X231523809Y-21952380D01*
X231428571Y-22095238D01*
X231333333Y-22190476D01*
X231238095Y-22238095D01*
X232142857Y-21952380D02*
X232761904Y-21952380D01*
X232428571Y-22333333D01*
X232571428Y-22333333D01*
X232666666Y-22380952D01*
X232714285Y-22428571D01*
X232761904Y-22523809D01*
X232761904Y-22761904D01*
X232714285Y-22857142D01*
X232666666Y-22904761D01*
X232571428Y-22952380D01*
X232285714Y-22952380D01*
X232190476Y-22904761D01*
X232142857Y-22857142D01*
X236609523Y-17852380D02*
X236038095Y-17852380D01*
X236323809Y-17852380D02*
X236323809Y-16852380D01*
X236228571Y-16995238D01*
X236133333Y-17090476D01*
X236038095Y-17138095D01*
X237466666Y-17185714D02*
X237466666Y-17852380D01*
X237228571Y-16804761D02*
X236990476Y-17519047D01*
X237609523Y-17519047D01*
X166966666Y-47252380D02*
X167633333Y-47252380D01*
X167204761Y-48252380D01*
X172390476Y-42252380D02*
X172200000Y-42252380D01*
X172104761Y-42300000D01*
X172057142Y-42347619D01*
X171961904Y-42490476D01*
X171914285Y-42680952D01*
X171914285Y-43061904D01*
X171961904Y-43157142D01*
X172009523Y-43204761D01*
X172104761Y-43252380D01*
X172295238Y-43252380D01*
X172390476Y-43204761D01*
X172438095Y-43157142D01*
X172485714Y-43061904D01*
X172485714Y-42823809D01*
X172438095Y-42728571D01*
X172390476Y-42680952D01*
X172295238Y-42633333D01*
X172104761Y-42633333D01*
X172009523Y-42680952D01*
X171961904Y-42728571D01*
X171914285Y-42823809D01*
X167138095Y-37252380D02*
X166661904Y-37252380D01*
X166614285Y-37728571D01*
X166661904Y-37680952D01*
X166757142Y-37633333D01*
X166995238Y-37633333D01*
X167090476Y-37680952D01*
X167138095Y-37728571D01*
X167185714Y-37823809D01*
X167185714Y-38061904D01*
X167138095Y-38157142D01*
X167090476Y-38204761D01*
X166995238Y-38252380D01*
X166757142Y-38252380D01*
X166661904Y-38204761D01*
X166614285Y-38157142D01*
X172290476Y-32385714D02*
X172290476Y-33052380D01*
X172052380Y-32004761D02*
X171814285Y-32719047D01*
X172433333Y-32719047D01*
X166866666Y-27052380D02*
X167485714Y-27052380D01*
X167152380Y-27433333D01*
X167295238Y-27433333D01*
X167390476Y-27480952D01*
X167438095Y-27528571D01*
X167485714Y-27623809D01*
X167485714Y-27861904D01*
X167438095Y-27957142D01*
X167390476Y-28004761D01*
X167295238Y-28052380D01*
X167009523Y-28052380D01*
X166914285Y-28004761D01*
X166866666Y-27957142D01*
X171814285Y-22247619D02*
X171861904Y-22200000D01*
X171957142Y-22152380D01*
X172195238Y-22152380D01*
X172290476Y-22200000D01*
X172338095Y-22247619D01*
X172385714Y-22342857D01*
X172385714Y-22438095D01*
X172338095Y-22580952D01*
X171766666Y-23152380D01*
X172385714Y-23152380D01*
X167485714Y-17652380D02*
X166914285Y-17652380D01*
X167200000Y-17652380D02*
X167200000Y-16652380D01*
X167104761Y-16795238D01*
X167009523Y-16890476D01*
X166914285Y-16938095D01*
X157552380Y-53790476D02*
X157552380Y-54361904D01*
X157552380Y-54076190D02*
X156552380Y-54076190D01*
X156695238Y-54171428D01*
X156790476Y-54266666D01*
X156838095Y-54361904D01*
X156885714Y-52933333D02*
X157552380Y-52933333D01*
X156504761Y-53171428D02*
X157219047Y-53409523D01*
X157219047Y-52790476D01*
X152552380Y-48790476D02*
X152552380Y-49361904D01*
X152552380Y-49076190D02*
X151552380Y-49076190D01*
X151695238Y-49171428D01*
X151790476Y-49266666D01*
X151838095Y-49361904D01*
X151552380Y-48457142D02*
X151552380Y-47838095D01*
X151933333Y-48171428D01*
X151933333Y-48028571D01*
X151980952Y-47933333D01*
X152028571Y-47885714D01*
X152123809Y-47838095D01*
X152361904Y-47838095D01*
X152457142Y-47885714D01*
X152504761Y-47933333D01*
X152552380Y-48028571D01*
X152552380Y-48314285D01*
X152504761Y-48409523D01*
X152457142Y-48457142D01*
X157552380Y-43790476D02*
X157552380Y-44361904D01*
X157552380Y-44076190D02*
X156552380Y-44076190D01*
X156695238Y-44171428D01*
X156790476Y-44266666D01*
X156838095Y-44361904D01*
X156647619Y-43409523D02*
X156600000Y-43361904D01*
X156552380Y-43266666D01*
X156552380Y-43028571D01*
X156600000Y-42933333D01*
X156647619Y-42885714D01*
X156742857Y-42838095D01*
X156838095Y-42838095D01*
X156980952Y-42885714D01*
X157552380Y-43457142D01*
X157552380Y-42838095D01*
X152552380Y-38890476D02*
X152552380Y-39461904D01*
X152552380Y-39176190D02*
X151552380Y-39176190D01*
X151695238Y-39271428D01*
X151790476Y-39366666D01*
X151838095Y-39461904D01*
X152552380Y-37938095D02*
X152552380Y-38509523D01*
X152552380Y-38223809D02*
X151552380Y-38223809D01*
X151695238Y-38319047D01*
X151790476Y-38414285D01*
X151838095Y-38509523D01*
X157652380Y-33790476D02*
X157652380Y-34361904D01*
X157652380Y-34076190D02*
X156652380Y-34076190D01*
X156795238Y-34171428D01*
X156890476Y-34266666D01*
X156938095Y-34361904D01*
X156652380Y-33171428D02*
X156652380Y-33076190D01*
X156700000Y-32980952D01*
X156747619Y-32933333D01*
X156842857Y-32885714D01*
X157033333Y-32838095D01*
X157271428Y-32838095D01*
X157461904Y-32885714D01*
X157557142Y-32933333D01*
X157604761Y-32980952D01*
X157652380Y-33076190D01*
X157652380Y-33171428D01*
X157604761Y-33266666D01*
X157557142Y-33314285D01*
X157461904Y-33361904D01*
X157271428Y-33409523D01*
X157033333Y-33409523D01*
X156842857Y-33361904D01*
X156747619Y-33314285D01*
X156700000Y-33266666D01*
X156652380Y-33171428D01*
X152652380Y-28890476D02*
X152652380Y-28700000D01*
X152604761Y-28604761D01*
X152557142Y-28557142D01*
X152414285Y-28461904D01*
X152223809Y-28414285D01*
X151842857Y-28414285D01*
X151747619Y-28461904D01*
X151700000Y-28509523D01*
X151652380Y-28604761D01*
X151652380Y-28795238D01*
X151700000Y-28890476D01*
X151747619Y-28938095D01*
X151842857Y-28985714D01*
X152080952Y-28985714D01*
X152176190Y-28938095D01*
X152223809Y-28890476D01*
X152271428Y-28795238D01*
X152271428Y-28604761D01*
X152223809Y-28509523D01*
X152176190Y-28461904D01*
X152080952Y-28414285D01*
X156980952Y-23695238D02*
X156933333Y-23790476D01*
X156885714Y-23838095D01*
X156790476Y-23885714D01*
X156742857Y-23885714D01*
X156647619Y-23838095D01*
X156600000Y-23790476D01*
X156552380Y-23695238D01*
X156552380Y-23504761D01*
X156600000Y-23409523D01*
X156647619Y-23361904D01*
X156742857Y-23314285D01*
X156790476Y-23314285D01*
X156885714Y-23361904D01*
X156933333Y-23409523D01*
X156980952Y-23504761D01*
X156980952Y-23695238D01*
X157028571Y-23790476D01*
X157076190Y-23838095D01*
X157171428Y-23885714D01*
X157361904Y-23885714D01*
X157457142Y-23838095D01*
X157504761Y-23790476D01*
X157552380Y-23695238D01*
X157552380Y-23504761D01*
X157504761Y-23409523D01*
X157457142Y-23361904D01*
X157361904Y-23314285D01*
X157171428Y-23314285D01*
X157076190Y-23361904D01*
X157028571Y-23409523D01*
X156980952Y-23504761D01*
X84352380Y-54633333D02*
X84352380Y-53966666D01*
X85352380Y-54395238D01*
X89852380Y-48909523D02*
X89852380Y-49100000D01*
X89900000Y-49195238D01*
X89947619Y-49242857D01*
X90090476Y-49338095D01*
X90280952Y-49385714D01*
X90661904Y-49385714D01*
X90757142Y-49338095D01*
X90804761Y-49290476D01*
X90852380Y-49195238D01*
X90852380Y-49004761D01*
X90804761Y-48909523D01*
X90757142Y-48861904D01*
X90661904Y-48814285D01*
X90423809Y-48814285D01*
X90328571Y-48861904D01*
X90280952Y-48909523D01*
X90233333Y-49004761D01*
X90233333Y-49195238D01*
X90280952Y-49290476D01*
X90328571Y-49338095D01*
X90423809Y-49385714D01*
X84452380Y-43861904D02*
X84452380Y-44338095D01*
X84928571Y-44385714D01*
X84880952Y-44338095D01*
X84833333Y-44242857D01*
X84833333Y-44004761D01*
X84880952Y-43909523D01*
X84928571Y-43861904D01*
X85023809Y-43814285D01*
X85261904Y-43814285D01*
X85357142Y-43861904D01*
X85404761Y-43909523D01*
X85452380Y-44004761D01*
X85452380Y-44242857D01*
X85404761Y-44338095D01*
X85357142Y-44385714D01*
X89585714Y-38909523D02*
X90252380Y-38909523D01*
X89204761Y-39147619D02*
X89919047Y-39385714D01*
X89919047Y-38766666D01*
X84152380Y-34433333D02*
X84152380Y-33814285D01*
X84533333Y-34147619D01*
X84533333Y-34004761D01*
X84580952Y-33909523D01*
X84628571Y-33861904D01*
X84723809Y-33814285D01*
X84961904Y-33814285D01*
X85057142Y-33861904D01*
X85104761Y-33909523D01*
X85152380Y-34004761D01*
X85152380Y-34290476D01*
X85104761Y-34385714D01*
X85057142Y-34433333D01*
X89147619Y-28885714D02*
X89100000Y-28838095D01*
X89052380Y-28742857D01*
X89052380Y-28504761D01*
X89100000Y-28409523D01*
X89147619Y-28361904D01*
X89242857Y-28314285D01*
X89338095Y-28314285D01*
X89480952Y-28361904D01*
X90052380Y-28933333D01*
X90052380Y-28314285D01*
X84952380Y-23714285D02*
X84952380Y-24285714D01*
X84952380Y-24000000D02*
X83952380Y-24000000D01*
X84095238Y-24095238D01*
X84190476Y-24190476D01*
X84238095Y-24285714D01*
D10*
X82400000Y-18900000D02*
X159200000Y-18900000D01*
X81000000Y-57300000D02*
X81000000Y-13600000D01*
D13*
X253500000Y-59800000D02*
X227500000Y-59800000D01*
X54200000Y-59800000D02*
X227500000Y-59800000D01*
X253500000Y-12100000D02*
X253500000Y-59800000D01*
X54700000Y-12100000D02*
X253500000Y-12100000D01*
X12100000Y-36900000D02*
X12100000Y-59800000D01*
D11*
X54590476Y-50185714D02*
X54590476Y-50852380D01*
X54352380Y-49804761D02*
X54114285Y-50519047D01*
X54733333Y-50519047D01*
X58366666Y-37852380D02*
X58985714Y-37852380D01*
X58652380Y-38233333D01*
X58795238Y-38233333D01*
X58890476Y-38280952D01*
X58938095Y-38328571D01*
X58985714Y-38423809D01*
X58985714Y-38661904D01*
X58938095Y-38757142D01*
X58890476Y-38804761D01*
X58795238Y-38852380D01*
X58509523Y-38852380D01*
X58414285Y-38804761D01*
X58366666Y-38757142D01*
X69814285Y-45647619D02*
X69861904Y-45600000D01*
X69957142Y-45552380D01*
X70195238Y-45552380D01*
X70290476Y-45600000D01*
X70338095Y-45647619D01*
X70385714Y-45742857D01*
X70385714Y-45838095D01*
X70338095Y-45980952D01*
X69766666Y-46552380D01*
X70385714Y-46552380D01*
X76885714Y-38552380D02*
X76314285Y-38552380D01*
X76600000Y-38552380D02*
X76600000Y-37552380D01*
X76504761Y-37695238D01*
X76409523Y-37790476D01*
X76314285Y-37838095D01*
X38990476Y-20085714D02*
X38990476Y-20752380D01*
X38752380Y-19704761D02*
X38514285Y-20419047D01*
X39133333Y-20419047D01*
X31266666Y-28352380D02*
X31885714Y-28352380D01*
X31552380Y-28733333D01*
X31695238Y-28733333D01*
X31790476Y-28780952D01*
X31838095Y-28828571D01*
X31885714Y-28923809D01*
X31885714Y-29161904D01*
X31838095Y-29257142D01*
X31790476Y-29304761D01*
X31695238Y-29352380D01*
X31409523Y-29352380D01*
X31314285Y-29304761D01*
X31266666Y-29257142D01*
X23814285Y-19747619D02*
X23861904Y-19700000D01*
X23957142Y-19652380D01*
X24195238Y-19652380D01*
X24290476Y-19700000D01*
X24338095Y-19747619D01*
X24385714Y-19842857D01*
X24385714Y-19938095D01*
X24338095Y-20080952D01*
X23766666Y-20652380D01*
X24385714Y-20652380D01*
X16485714Y-29152380D02*
X15914285Y-29152380D01*
X16200000Y-29152380D02*
X16200000Y-28152380D01*
X16104761Y-28295238D01*
X16009523Y-28390476D01*
X15914285Y-28438095D01*
D10*
X45700000Y-13700000D02*
X45700000Y-57700000D01*
D13*
X12100000Y-12100000D02*
X54700000Y-12100000D01*
X12100000Y-59800000D02*
X54200000Y-59800000D01*
X12100000Y-12100000D02*
X12100000Y-36900000D01*
D10*
X71075000Y-23175000D02*
X68250000Y-23175000D01*
X56175000Y-23175000D02*
X59750000Y-23175000D01*
X56175000Y-23175000D02*
X56175000Y-18100000D01*
X56200000Y-23175000D02*
X56175000Y-23175000D01*
X71825000Y-22425000D02*
X71075000Y-23175000D01*
X71825000Y-15225000D02*
X71825000Y-22425000D01*
X56175000Y-15225000D02*
X71825000Y-15225000D01*
X56175000Y-15250000D02*
X56175000Y-15225000D01*
X56175000Y-18100000D02*
X56175000Y-15250000D01*
X34375000Y-48225000D02*
X31775000Y-48225000D01*
X21000000Y-48225000D02*
X23625000Y-48225000D01*
X33700000Y-54775000D02*
X23425000Y-54775000D01*
X33700000Y-54750000D02*
X33700000Y-54775000D01*
X33700000Y-49275000D02*
X33700000Y-54750000D01*
X33725000Y-49275000D02*
X33700000Y-49275000D01*
X34400000Y-49275000D02*
X33725000Y-49275000D01*
X34400000Y-49250000D02*
X34400000Y-49275000D01*
X34400000Y-48225000D02*
X34400000Y-49250000D01*
X34375000Y-48225000D02*
X34400000Y-48225000D01*
X21000000Y-49275000D02*
X21000000Y-48225000D01*
X21700000Y-49275000D02*
X21000000Y-49275000D01*
X21700000Y-49850000D02*
X21700000Y-49275000D01*
X22400000Y-54775000D02*
X23425000Y-54775000D01*
X21700000Y-54075000D02*
X22400000Y-54775000D01*
X21700000Y-49850000D02*
X21700000Y-54075000D01*
X120875000Y-34100000D02*
X120875000Y-34075000D01*
X120875000Y-34450000D02*
X120875000Y-34100000D01*
X125725000Y-34075000D02*
X125725000Y-34450000D01*
X124350000Y-34075000D02*
X125725000Y-34075000D01*
X124350000Y-33325000D02*
X124350000Y-34075000D01*
X120875000Y-34075000D02*
X122250000Y-34075000D01*
X122250000Y-33325000D02*
X124350000Y-33325000D01*
X122250000Y-34075000D02*
X122250000Y-33325000D01*
X120875000Y-40725000D02*
X120875000Y-40350000D01*
X122250000Y-40725000D02*
X120875000Y-40725000D01*
X122250000Y-41475000D02*
X122250000Y-40725000D01*
X124350000Y-41475000D02*
X122250000Y-41475000D01*
X124350000Y-40725000D02*
X124350000Y-41475000D01*
X125725000Y-40725000D02*
X124350000Y-40725000D01*
X125725000Y-40700000D02*
X125725000Y-40725000D01*
X125725000Y-40350000D02*
X125725000Y-40700000D01*
X208400000Y-32075000D02*
X208400000Y-36900000D01*
X206700000Y-32075000D02*
X208400000Y-32075000D01*
X208400000Y-36900000D02*
X208400000Y-36925000D01*
X208400000Y-36925000D02*
X206700000Y-36925000D01*
X199200000Y-32075000D02*
X200900000Y-32075000D01*
X199200000Y-32100000D02*
X199200000Y-32075000D01*
X199200000Y-36925000D02*
X199200000Y-32100000D01*
X200900000Y-36925000D02*
X199200000Y-36925000D01*
D11*
X72161904Y-25652380D02*
X72161904Y-26461904D01*
X72209523Y-26557142D01*
X72257142Y-26604761D01*
X72352380Y-26652380D01*
X72542857Y-26652380D01*
X72638095Y-26604761D01*
X72685714Y-26557142D01*
X72733333Y-26461904D01*
X72733333Y-25652380D01*
X73209523Y-26652380D02*
X73209523Y-25652380D01*
X73542857Y-26366666D01*
X73876190Y-25652380D01*
X73876190Y-26652380D01*
X74352380Y-26652380D02*
X74352380Y-25652380D01*
X74733333Y-25652380D01*
X74828571Y-25700000D01*
X74876190Y-25747619D01*
X74923809Y-25842857D01*
X74923809Y-25985714D01*
X74876190Y-26080952D01*
X74828571Y-26128571D01*
X74733333Y-26176190D01*
X74352380Y-26176190D01*
X75209523Y-25652380D02*
X75780952Y-25652380D01*
X75495238Y-26652380D02*
X75495238Y-25652380D01*
X15466666Y-45077380D02*
X15466666Y-45886904D01*
X15514285Y-45982142D01*
X15561904Y-46029761D01*
X15657142Y-46077380D01*
X15847619Y-46077380D01*
X15942857Y-46029761D01*
X15990476Y-45982142D01*
X16038095Y-45886904D01*
X16038095Y-45077380D01*
X16514285Y-46077380D02*
X16514285Y-45077380D01*
X16847619Y-45791666D01*
X17180952Y-45077380D01*
X17180952Y-46077380D01*
X17657142Y-46077380D02*
X17657142Y-45077380D01*
X18038095Y-45077380D01*
X18133333Y-45125000D01*
X18180952Y-45172619D01*
X18228571Y-45267857D01*
X18228571Y-45410714D01*
X18180952Y-45505952D01*
X18133333Y-45553571D01*
X18038095Y-45601190D01*
X17657142Y-45601190D01*
X18609523Y-46029761D02*
X18752380Y-46077380D01*
X18990476Y-46077380D01*
X19085714Y-46029761D01*
X19133333Y-45982142D01*
X19180952Y-45886904D01*
X19180952Y-45791666D01*
X19133333Y-45696428D01*
X19085714Y-45648809D01*
X18990476Y-45601190D01*
X18800000Y-45553571D01*
X18704761Y-45505952D01*
X18657142Y-45458333D01*
X18609523Y-45363095D01*
X18609523Y-45267857D01*
X18657142Y-45172619D01*
X18704761Y-45125000D01*
X18800000Y-45077380D01*
X19038095Y-45077380D01*
X19180952Y-45125000D01*
X120852380Y-32814285D02*
X120852380Y-32242857D01*
X121852380Y-32528571D02*
X120852380Y-32528571D01*
X121852380Y-31433333D02*
X121852380Y-31909523D01*
X120852380Y-31909523D01*
X121852380Y-31100000D02*
X120852380Y-31100000D01*
X121328571Y-31100000D02*
X121328571Y-30528571D01*
X121852380Y-30528571D02*
X120852380Y-30528571D01*
X209660714Y-31904761D02*
X209803571Y-31952380D01*
X210041666Y-31952380D01*
X210136904Y-31904761D01*
X210184523Y-31857142D01*
X210232142Y-31761904D01*
X210232142Y-31666666D01*
X210184523Y-31571428D01*
X210136904Y-31523809D01*
X210041666Y-31476190D01*
X209851190Y-31428571D01*
X209755952Y-31380952D01*
X209708333Y-31333333D01*
X209660714Y-31238095D01*
X209660714Y-31142857D01*
X209708333Y-31047619D01*
X209755952Y-31000000D01*
X209851190Y-30952380D01*
X210089285Y-30952380D01*
X210232142Y-31000000D01*
X211136904Y-31952380D02*
X210660714Y-31952380D01*
X210660714Y-30952380D01*
X211470238Y-31952380D02*
X211470238Y-30952380D01*
X211470238Y-31428571D02*
X212041666Y-31428571D01*
X212041666Y-31952380D02*
X212041666Y-30952380D01*
X242261904Y-23604761D02*
X242404761Y-23652380D01*
X242642857Y-23652380D01*
X242738095Y-23604761D01*
X242785714Y-23557142D01*
X242833333Y-23461904D01*
X242833333Y-23366666D01*
X242785714Y-23271428D01*
X242738095Y-23223809D01*
X242642857Y-23176190D01*
X242452380Y-23128571D01*
X242357142Y-23080952D01*
X242309523Y-23033333D01*
X242261904Y-22938095D01*
X242261904Y-22842857D01*
X242309523Y-22747619D01*
X242357142Y-22700000D01*
X242452380Y-22652380D01*
X242690476Y-22652380D01*
X242833333Y-22700000D01*
X243690476Y-22985714D02*
X243690476Y-23652380D01*
X243261904Y-22985714D02*
X243261904Y-23509523D01*
X243309523Y-23604761D01*
X243404761Y-23652380D01*
X243547619Y-23652380D01*
X243642857Y-23604761D01*
X243690476Y-23557142D01*
X244166666Y-22985714D02*
X244166666Y-23985714D01*
X244166666Y-23033333D02*
X244261904Y-22985714D01*
X244452380Y-22985714D01*
X244547619Y-23033333D01*
X244595238Y-23080952D01*
X244642857Y-23176190D01*
X244642857Y-23461904D01*
X244595238Y-23557142D01*
X244547619Y-23604761D01*
X244452380Y-23652380D01*
X244261904Y-23652380D01*
X244166666Y-23604761D01*
X245071428Y-22985714D02*
X245071428Y-23985714D01*
X245071428Y-23033333D02*
X245166666Y-22985714D01*
X245357142Y-22985714D01*
X245452380Y-23033333D01*
X245500000Y-23080952D01*
X245547619Y-23176190D01*
X245547619Y-23461904D01*
X245500000Y-23557142D01*
X245452380Y-23604761D01*
X245357142Y-23652380D01*
X245166666Y-23652380D01*
X245071428Y-23604761D01*
X246119047Y-23652380D02*
X246023809Y-23604761D01*
X245976190Y-23557142D01*
X245928571Y-23461904D01*
X245928571Y-23176190D01*
X245976190Y-23080952D01*
X246023809Y-23033333D01*
X246119047Y-22985714D01*
X246261904Y-22985714D01*
X246357142Y-23033333D01*
X246404761Y-23080952D01*
X246452380Y-23176190D01*
X246452380Y-23461904D01*
X246404761Y-23557142D01*
X246357142Y-23604761D01*
X246261904Y-23652380D01*
X246119047Y-23652380D01*
X246880952Y-23652380D02*
X246880952Y-22985714D01*
X246880952Y-23176190D02*
X246928571Y-23080952D01*
X246976190Y-23033333D01*
X247071428Y-22985714D01*
X247166666Y-22985714D01*
X247357142Y-22985714D02*
X247738095Y-22985714D01*
X247500000Y-22652380D02*
X247500000Y-23509523D01*
X247547619Y-23604761D01*
X247642857Y-23652380D01*
X247738095Y-23652380D01*
X248833333Y-23652380D02*
X248833333Y-22652380D01*
X248833333Y-23128571D02*
X249404761Y-23128571D01*
X249404761Y-23652380D02*
X249404761Y-22652380D01*
X250023809Y-23652380D02*
X249928571Y-23604761D01*
X249880952Y-23557142D01*
X249833333Y-23461904D01*
X249833333Y-23176190D01*
X249880952Y-23080952D01*
X249928571Y-23033333D01*
X250023809Y-22985714D01*
X250166666Y-22985714D01*
X250261904Y-23033333D01*
X250309523Y-23080952D01*
X250357142Y-23176190D01*
X250357142Y-23461904D01*
X250309523Y-23557142D01*
X250261904Y-23604761D01*
X250166666Y-23652380D01*
X250023809Y-23652380D01*
X250928571Y-23652380D02*
X250833333Y-23604761D01*
X250785714Y-23509523D01*
X250785714Y-22652380D01*
X251690476Y-23604761D02*
X251595238Y-23652380D01*
X251404761Y-23652380D01*
X251309523Y-23604761D01*
X251261904Y-23509523D01*
X251261904Y-23128571D01*
X251309523Y-23033333D01*
X251404761Y-22985714D01*
X251595238Y-22985714D01*
X251690476Y-23033333D01*
X251738095Y-23128571D01*
X251738095Y-23223809D01*
X251261904Y-23319047D01*
X164561904Y-55004761D02*
X164704761Y-55052380D01*
X164942857Y-55052380D01*
X165038095Y-55004761D01*
X165085714Y-54957142D01*
X165133333Y-54861904D01*
X165133333Y-54766666D01*
X165085714Y-54671428D01*
X165038095Y-54623809D01*
X164942857Y-54576190D01*
X164752380Y-54528571D01*
X164657142Y-54480952D01*
X164609523Y-54433333D01*
X164561904Y-54338095D01*
X164561904Y-54242857D01*
X164609523Y-54147619D01*
X164657142Y-54100000D01*
X164752380Y-54052380D01*
X164990476Y-54052380D01*
X165133333Y-54100000D01*
X165990476Y-54385714D02*
X165990476Y-55052380D01*
X165561904Y-54385714D02*
X165561904Y-54909523D01*
X165609523Y-55004761D01*
X165704761Y-55052380D01*
X165847619Y-55052380D01*
X165942857Y-55004761D01*
X165990476Y-54957142D01*
X166466666Y-54385714D02*
X166466666Y-55385714D01*
X166466666Y-54433333D02*
X166561904Y-54385714D01*
X166752380Y-54385714D01*
X166847619Y-54433333D01*
X166895238Y-54480952D01*
X166942857Y-54576190D01*
X166942857Y-54861904D01*
X166895238Y-54957142D01*
X166847619Y-55004761D01*
X166752380Y-55052380D01*
X166561904Y-55052380D01*
X166466666Y-55004761D01*
X167371428Y-54385714D02*
X167371428Y-55385714D01*
X167371428Y-54433333D02*
X167466666Y-54385714D01*
X167657142Y-54385714D01*
X167752380Y-54433333D01*
X167800000Y-54480952D01*
X167847619Y-54576190D01*
X167847619Y-54861904D01*
X167800000Y-54957142D01*
X167752380Y-55004761D01*
X167657142Y-55052380D01*
X167466666Y-55052380D01*
X167371428Y-55004761D01*
X168419047Y-55052380D02*
X168323809Y-55004761D01*
X168276190Y-54957142D01*
X168228571Y-54861904D01*
X168228571Y-54576190D01*
X168276190Y-54480952D01*
X168323809Y-54433333D01*
X168419047Y-54385714D01*
X168561904Y-54385714D01*
X168657142Y-54433333D01*
X168704761Y-54480952D01*
X168752380Y-54576190D01*
X168752380Y-54861904D01*
X168704761Y-54957142D01*
X168657142Y-55004761D01*
X168561904Y-55052380D01*
X168419047Y-55052380D01*
X169180952Y-55052380D02*
X169180952Y-54385714D01*
X169180952Y-54576190D02*
X169228571Y-54480952D01*
X169276190Y-54433333D01*
X169371428Y-54385714D01*
X169466666Y-54385714D01*
X169657142Y-54385714D02*
X170038095Y-54385714D01*
X169800000Y-54052380D02*
X169800000Y-54909523D01*
X169847619Y-55004761D01*
X169942857Y-55052380D01*
X170038095Y-55052380D01*
X171133333Y-55052380D02*
X171133333Y-54052380D01*
X171133333Y-54528571D02*
X171704761Y-54528571D01*
X171704761Y-55052380D02*
X171704761Y-54052380D01*
X172323809Y-55052380D02*
X172228571Y-55004761D01*
X172180952Y-54957142D01*
X172133333Y-54861904D01*
X172133333Y-54576190D01*
X172180952Y-54480952D01*
X172228571Y-54433333D01*
X172323809Y-54385714D01*
X172466666Y-54385714D01*
X172561904Y-54433333D01*
X172609523Y-54480952D01*
X172657142Y-54576190D01*
X172657142Y-54861904D01*
X172609523Y-54957142D01*
X172561904Y-55004761D01*
X172466666Y-55052380D01*
X172323809Y-55052380D01*
X173228571Y-55052380D02*
X173133333Y-55004761D01*
X173085714Y-54909523D01*
X173085714Y-54052380D01*
X173990476Y-55004761D02*
X173895238Y-55052380D01*
X173704761Y-55052380D01*
X173609523Y-55004761D01*
X173561904Y-54909523D01*
X173561904Y-54528571D01*
X173609523Y-54433333D01*
X173704761Y-54385714D01*
X173895238Y-54385714D01*
X173990476Y-54433333D01*
X174038095Y-54528571D01*
X174038095Y-54623809D01*
X173561904Y-54719047D01*
X57861904Y-57004761D02*
X58004761Y-57052380D01*
X58242857Y-57052380D01*
X58338095Y-57004761D01*
X58385714Y-56957142D01*
X58433333Y-56861904D01*
X58433333Y-56766666D01*
X58385714Y-56671428D01*
X58338095Y-56623809D01*
X58242857Y-56576190D01*
X58052380Y-56528571D01*
X57957142Y-56480952D01*
X57909523Y-56433333D01*
X57861904Y-56338095D01*
X57861904Y-56242857D01*
X57909523Y-56147619D01*
X57957142Y-56100000D01*
X58052380Y-56052380D01*
X58290476Y-56052380D01*
X58433333Y-56100000D01*
X59290476Y-56385714D02*
X59290476Y-57052380D01*
X58861904Y-56385714D02*
X58861904Y-56909523D01*
X58909523Y-57004761D01*
X59004761Y-57052380D01*
X59147619Y-57052380D01*
X59242857Y-57004761D01*
X59290476Y-56957142D01*
X59766666Y-56385714D02*
X59766666Y-57385714D01*
X59766666Y-56433333D02*
X59861904Y-56385714D01*
X60052380Y-56385714D01*
X60147619Y-56433333D01*
X60195238Y-56480952D01*
X60242857Y-56576190D01*
X60242857Y-56861904D01*
X60195238Y-56957142D01*
X60147619Y-57004761D01*
X60052380Y-57052380D01*
X59861904Y-57052380D01*
X59766666Y-57004761D01*
X60671428Y-56385714D02*
X60671428Y-57385714D01*
X60671428Y-56433333D02*
X60766666Y-56385714D01*
X60957142Y-56385714D01*
X61052380Y-56433333D01*
X61100000Y-56480952D01*
X61147619Y-56576190D01*
X61147619Y-56861904D01*
X61100000Y-56957142D01*
X61052380Y-57004761D01*
X60957142Y-57052380D01*
X60766666Y-57052380D01*
X60671428Y-57004761D01*
X61719047Y-57052380D02*
X61623809Y-57004761D01*
X61576190Y-56957142D01*
X61528571Y-56861904D01*
X61528571Y-56576190D01*
X61576190Y-56480952D01*
X61623809Y-56433333D01*
X61719047Y-56385714D01*
X61861904Y-56385714D01*
X61957142Y-56433333D01*
X62004761Y-56480952D01*
X62052380Y-56576190D01*
X62052380Y-56861904D01*
X62004761Y-56957142D01*
X61957142Y-57004761D01*
X61861904Y-57052380D01*
X61719047Y-57052380D01*
X62480952Y-57052380D02*
X62480952Y-56385714D01*
X62480952Y-56576190D02*
X62528571Y-56480952D01*
X62576190Y-56433333D01*
X62671428Y-56385714D01*
X62766666Y-56385714D01*
X62957142Y-56385714D02*
X63338095Y-56385714D01*
X63100000Y-56052380D02*
X63100000Y-56909523D01*
X63147619Y-57004761D01*
X63242857Y-57052380D01*
X63338095Y-57052380D01*
X64433333Y-57052380D02*
X64433333Y-56052380D01*
X64433333Y-56528571D02*
X65004761Y-56528571D01*
X65004761Y-57052380D02*
X65004761Y-56052380D01*
X65623809Y-57052380D02*
X65528571Y-57004761D01*
X65480952Y-56957142D01*
X65433333Y-56861904D01*
X65433333Y-56576190D01*
X65480952Y-56480952D01*
X65528571Y-56433333D01*
X65623809Y-56385714D01*
X65766666Y-56385714D01*
X65861904Y-56433333D01*
X65909523Y-56480952D01*
X65957142Y-56576190D01*
X65957142Y-56861904D01*
X65909523Y-56957142D01*
X65861904Y-57004761D01*
X65766666Y-57052380D01*
X65623809Y-57052380D01*
X66528571Y-57052380D02*
X66433333Y-57004761D01*
X66385714Y-56909523D01*
X66385714Y-56052380D01*
X67290476Y-57004761D02*
X67195238Y-57052380D01*
X67004761Y-57052380D01*
X66909523Y-57004761D01*
X66861904Y-56909523D01*
X66861904Y-56528571D01*
X66909523Y-56433333D01*
X67004761Y-56385714D01*
X67195238Y-56385714D01*
X67290476Y-56433333D01*
X67338095Y-56528571D01*
X67338095Y-56623809D01*
X66861904Y-56719047D01*
X21061904Y-15904761D02*
X21204761Y-15952380D01*
X21442857Y-15952380D01*
X21538095Y-15904761D01*
X21585714Y-15857142D01*
X21633333Y-15761904D01*
X21633333Y-15666666D01*
X21585714Y-15571428D01*
X21538095Y-15523809D01*
X21442857Y-15476190D01*
X21252380Y-15428571D01*
X21157142Y-15380952D01*
X21109523Y-15333333D01*
X21061904Y-15238095D01*
X21061904Y-15142857D01*
X21109523Y-15047619D01*
X21157142Y-15000000D01*
X21252380Y-14952380D01*
X21490476Y-14952380D01*
X21633333Y-15000000D01*
X22490476Y-15285714D02*
X22490476Y-15952380D01*
X22061904Y-15285714D02*
X22061904Y-15809523D01*
X22109523Y-15904761D01*
X22204761Y-15952380D01*
X22347619Y-15952380D01*
X22442857Y-15904761D01*
X22490476Y-15857142D01*
X22966666Y-15285714D02*
X22966666Y-16285714D01*
X22966666Y-15333333D02*
X23061904Y-15285714D01*
X23252380Y-15285714D01*
X23347619Y-15333333D01*
X23395238Y-15380952D01*
X23442857Y-15476190D01*
X23442857Y-15761904D01*
X23395238Y-15857142D01*
X23347619Y-15904761D01*
X23252380Y-15952380D01*
X23061904Y-15952380D01*
X22966666Y-15904761D01*
X23871428Y-15285714D02*
X23871428Y-16285714D01*
X23871428Y-15333333D02*
X23966666Y-15285714D01*
X24157142Y-15285714D01*
X24252380Y-15333333D01*
X24300000Y-15380952D01*
X24347619Y-15476190D01*
X24347619Y-15761904D01*
X24300000Y-15857142D01*
X24252380Y-15904761D01*
X24157142Y-15952380D01*
X23966666Y-15952380D01*
X23871428Y-15904761D01*
X24919047Y-15952380D02*
X24823809Y-15904761D01*
X24776190Y-15857142D01*
X24728571Y-15761904D01*
X24728571Y-15476190D01*
X24776190Y-15380952D01*
X24823809Y-15333333D01*
X24919047Y-15285714D01*
X25061904Y-15285714D01*
X25157142Y-15333333D01*
X25204761Y-15380952D01*
X25252380Y-15476190D01*
X25252380Y-15761904D01*
X25204761Y-15857142D01*
X25157142Y-15904761D01*
X25061904Y-15952380D01*
X24919047Y-15952380D01*
X25680952Y-15952380D02*
X25680952Y-15285714D01*
X25680952Y-15476190D02*
X25728571Y-15380952D01*
X25776190Y-15333333D01*
X25871428Y-15285714D01*
X25966666Y-15285714D01*
X26157142Y-15285714D02*
X26538095Y-15285714D01*
X26300000Y-14952380D02*
X26300000Y-15809523D01*
X26347619Y-15904761D01*
X26442857Y-15952380D01*
X26538095Y-15952380D01*
X27633333Y-15952380D02*
X27633333Y-14952380D01*
X27633333Y-15428571D02*
X28204761Y-15428571D01*
X28204761Y-15952380D02*
X28204761Y-14952380D01*
X28823809Y-15952380D02*
X28728571Y-15904761D01*
X28680952Y-15857142D01*
X28633333Y-15761904D01*
X28633333Y-15476190D01*
X28680952Y-15380952D01*
X28728571Y-15333333D01*
X28823809Y-15285714D01*
X28966666Y-15285714D01*
X29061904Y-15333333D01*
X29109523Y-15380952D01*
X29157142Y-15476190D01*
X29157142Y-15761904D01*
X29109523Y-15857142D01*
X29061904Y-15904761D01*
X28966666Y-15952380D01*
X28823809Y-15952380D01*
X29728571Y-15952380D02*
X29633333Y-15904761D01*
X29585714Y-15809523D01*
X29585714Y-14952380D01*
X30490476Y-15904761D02*
X30395238Y-15952380D01*
X30204761Y-15952380D01*
X30109523Y-15904761D01*
X30061904Y-15809523D01*
X30061904Y-15428571D01*
X30109523Y-15333333D01*
X30204761Y-15285714D01*
X30395238Y-15285714D01*
X30490476Y-15333333D01*
X30538095Y-15428571D01*
X30538095Y-15523809D01*
X30061904Y-15619047D01*
M02*
